SplineFontDB: 3.2
FontName: Kepler-452b
FullName: Kepler 452b
FamilyName: Kepler
Weight: Medium
Copyright: Created by Sam Murphey,,, with FontForge 2.0 (http://fontforge.sf.net)
UComments: "2017-3-8: Created."
Version: 001.000
ItalicAngle: 0
UnderlinePosition: 0
UnderlineWidth: 0
Ascent: 1536
Descent: 512
InvalidEm: 0
LayerCount: 2
Layer: 0 0 "Back" 1
Layer: 1 0 "Fore" 0
XUID: [1021 693 1088386991 4852375]
StyleMap: 0x0000
FSType: 0
OS2Version: 0
OS2_WeightWidthSlopeOnly: 0
OS2_UseTypoMetrics: 1
CreationTime: 1489043219
ModificationTime: 1641089974
OS2TypoAscent: 0
OS2TypoAOffset: 1
OS2TypoDescent: 0
OS2TypoDOffset: 1
OS2TypoLinegap: 184
OS2WinAscent: 0
OS2WinAOffset: 1
OS2WinDescent: 0
OS2WinDOffset: 1
HheadAscent: 0
HheadAOffset: 1
HheadDescent: 0
HheadDOffset: 1
Lookup: 4 0 1 "'liga' Standard Ligatures in Latin lookup 0" { "'liga' Standard Ligatures in Latin lookup 0-1"  } ['liga' ('DFLT' <'dflt' > 'latn' <'dflt' > ) ]
MarkAttachClasses: 1
DEI: 91125
Encoding: Custom
UnicodeInterp: none
NameList: Adobe Glyph List
DisplaySize: -72
AntiAlias: 1
FitToEm: 1
WinInfo: 54 18 7
BeginPrivate: 3
StdVW 4 [44]
StdHW 4 [44]
BlueValues 21 [0 0 370 370 697 697]
EndPrivate
Grid
-2048 1280 m 0
 4096 1280 l 1024
-2308 1216 m 0
 3836 1216 l 1024
-2049 -256 m 0
 4095 -256 l 1024
-2048 -192 m 0
 4096 -192 l 1024
912 2559 m 0
 912 -1537 l 1024
848 2556 m 0
 848 -1540 l 1024
432 2560 m 0
 432 -1536 l 1024
366 2559 m 0
 366 -1537 l 1024
-2047 784 m 0
 4097 784 l 1024
-2051 720 m 0
 4093 720 l 1024
-2065 1472 m 0
 4079 1472 l 1024
-2048 -447.916595459 m 0
 4096 -447.916595459 l 1024
-2048 240 m 0
 4096 240 l 1024
-2049 304 m 0
 4095 304 l 1024
-2045 544 m 0
 4099 544 l 1024
-2047 480 m 0
 4097 480 l 1024
607.995544434 2560 m 0
 607.995544434 -1536 l 1024
672 2560 m 0
 672 -1536 l 1024
-2048 960 m 0
 4096 960 l 1024
-2048 1024 m 0
 4096 1024 l 1024
-2044 64 m 0
 4100 64 l 1024
1088 2550 m 0
 1088 -1546 l 1024
1152 2560 m 0
 1152 -1536 l 1024
1280 2560 m 0
 1280 -1536 l 1024
192 2524 m 0

StartChar: A
Encoding: 65 65 0
Width: 1280
VWidth: 0
Flags: HW
HStem: 0 18G<87 131 741 784> 327 44<131 741> 654 44<492 741>
VStem: 87 44<0 327> 741 44<0 327 370 654>
LayerCount: 2
Fore
SplineSet
1088 960 m 5
 237 960 l 5
 1088 110 l 5
 1088 960 l 5
128 1024 m 5
 1152 1024 l 5
 1152 0 l 5
 1107 0 l 5
 192 915 l 5
 192 0 l 5
 128 0 l 5
 128 1024 l 5
EndSplineSet
Validated: 1
EndChar

StartChar: C
Encoding: 67 67 1
Width: 1280
VWidth: 0
Flags: HW
HStem: 0 44<131 784> 654 44<474 784>
VStem: 87 44<44 370>
LayerCount: 2
Fore
SplineSet
608 1024 m 13
 1152 1024 l 5
 1152 960 l 5
 627 960 l 5
 192 525 l 5
 192 64 l 5
 1152 64 l 5
 1152 0 l 29
 128 0 l 21
 128 544 l 5
 608 1024 l 13
EndSplineSet
Validated: 1
EndChar

StartChar: E
Encoding: 69 69 2
Width: 1280
VWidth: 0
Flags: HW
HStem: 0 44<131 784> 327 44<131 458> 654 44<131 784>
VStem: 87 44<44 327 370 654>
CounterMasks: 1 e0
LayerCount: 2
Fore
SplineSet
128 1024 m 29
 1152 1024 l 29
 1152 960 l 29
 192 960 l 29
 192 544 l 29
 672 544 l 29
 672 480 l 29
 192 480 l 29
 192 64 l 29
 1152 64 l 29
 1152 0 l 29
 128 0 l 29
 128 1024 l 29
EndSplineSet
Validated: 1
EndChar

StartChar: F
Encoding: 70 70 3
Width: 1280
VWidth: 0
Flags: HW
HStem: 0 18G<87 131> 0 18G<87 131> 327 44<131 458> 654 44<131 784>
VStem: 87 44<0 327 370 654>
LayerCount: 2
Fore
SplineSet
128 1024 m 25xb8
 1152 1024 l 25
 1152 960 l 25
 192 960 l 25
 192 544 l 1
 672 544 l 1
 672 480 l 1
 192 480 l 1
 192 0 l 25
 128 0 l 25
 128 1024 l 25xb8
EndSplineSet
Validated: 1
EndChar

StartChar: H
Encoding: 72 72 4
Width: 1280
VWidth: 0
Flags: HW
HStem: 0 18G<87 131 741 784> 0 18G<87 131 741 784> 327 44<131 741> 680 17G<87 131 741 784>
VStem: 87 44<0 327 370 697> 741 44<0 327 370 697>
LayerCount: 2
Fore
SplineSet
128 1024 m 25xbc
 192 1024 l 25
 192 544 l 25
 1088 544 l 25
 1088 1024 l 25
 1152 1024 l 25
 1152 0 l 25
 1088 0 l 25
 1088 480 l 25
 192 480 l 25
 192 0 l 25
 128 0 l 25
 128 1024 l 25xbc
EndSplineSet
Validated: 1
EndChar

StartChar: I
Encoding: 73 73 5
Width: 1280
VWidth: 0
Flags: HW
HStem: 0 44<87 414 458 784> 654 44<87 414 458 784>
VStem: 414 44<44 654>
LayerCount: 2
Fore
SplineSet
128 1024 m 29
 1152 1024 l 29
 1152 960 l 29
 672 960 l 29
 672 64 l 29
 1152 64 l 29
 1152 0 l 29
 128 0 l 29
 128 64 l 29
 608 64 l 29
 608 960 l 29
 128 960 l 29
 128 1024 l 29
EndSplineSet
Validated: 1
EndChar

StartChar: L
Encoding: 76 76 6
Width: 1280
VWidth: 0
Flags: HW
HStem: 0 44<131 784> 680 17G<87 131>
VStem: 87 44<44 697>
LayerCount: 2
Fore
SplineSet
128 1024 m 25
 192 1024 l 25
 192 64 l 25
 1152 64 l 25
 1152 0 l 25
 128 0 l 25
 128 1024 l 25
EndSplineSet
Validated: 1
EndChar

StartChar: O
Encoding: 79 79 7
Width: 1280
VWidth: 0
Flags: HW
HStem: 0 44<131 741> 654 44<131 741>
VStem: 87 44<44 654> 741 44<44 654>
LayerCount: 2
Fore
SplineSet
1088 960 m 29
 192 960 l 29
 192 64 l 29
 1088 64 l 29
 1088 960 l 29
128 1024 m 29
 1152 1024 l 29
 1152 0 l 29
 128 0 l 29
 128 1024 l 29
EndSplineSet
Validated: 1
EndChar

StartChar: P
Encoding: 80 80 8
Width: 1280
VWidth: 0
Flags: HW
HStem: 0 18G<87 131> 0 18G<87 131> 327 44<131 741> 654 44<131 741>
VStem: 87 44<0 327 370 654> 741 44<370 654>
LayerCount: 2
Fore
SplineSet
1088 960 m 29x3c
 192 960 l 29
 192 544 l 29
 1088 544 l 29
 1088 960 l 29x3c
128 1024 m 29
 1152 1024 l 29
 1152 480 l 29
 192 480 l 29
 192 0 l 29
 128 0 l 29xbc
 128 1024 l 29
EndSplineSet
Validated: 1
EndChar

StartChar: T
Encoding: 84 84 9
Width: 1280
VWidth: 0
Flags: HW
HStem: 0 18G<414 458> 0 18G<414 458> 654 44<87 414 458 784>
VStem: 414 44<0 654>
LayerCount: 2
Fore
SplineSet
128 1024 m 25xb0
 1152 1024 l 25
 1152 960 l 25
 672 960 l 25
 672 0 l 25
 608 0 l 25
 608 960 l 25
 128 960 l 25
 128 1024 l 25xb0
EndSplineSet
Validated: 1
EndChar

StartChar: B
Encoding: 66 66 10
Width: 1280
VWidth: 0
Flags: HW
HStem: 0 44<131 741> 327 44<131 728> 654 44<131 444>
VStem: 87 44<44 327 370 654> 741 44<44 327>
CounterMasks: 1 e0
LayerCount: 2
Fore
SplineSet
653 960 m 5
 192 960 l 5
 192 544 l 5
 1069 544 l 5
 653 960 l 5
1088 480 m 29
 192 480 l 5
 192 64 l 5
 1088 64 l 29
 1088 480 l 29
128 1024 m 5
 672 1024 l 29
 1152 544 l 5
 1152 0 l 29
 128 0 l 5
 128 1024 l 5
EndSplineSet
Validated: 1
EndChar

StartChar: D
Encoding: 68 68 11
Width: 1280
VWidth: 0
Flags: HW
HStem: 0 44<131 741> 654 44<131 444>
VStem: 87 44<44 654> 741 44<44 357>
LayerCount: 2
Fore
SplineSet
653 960 m 5
 192 960 l 5
 192 64 l 5
 1088 64 l 5
 1088 525 l 5
 653 960 l 5
128 1024 m 5
 672 1024 l 29
 1152 543 l 5
 1152 0 l 29
 128 0 l 29
 128 1024 l 5
EndSplineSet
Validated: 1
EndChar

StartChar: G
Encoding: 71 71 12
Width: 1280
VWidth: 0
Flags: HW
HStem: 0 44<131 431> 327 44<414 681> 654 44<131 784>
VStem: 87 44<44 654>
CounterMasks: 1 e0
LayerCount: 2
Fore
SplineSet
128 1024 m 25
 1152 1024 l 25
 1152 960 l 25
 192 960 l 25
 192 64 l 1
 653 64 l 1
 1069 480 l 1
 608 480 l 1
 608 544 l 1
 1152 544 l 1
 1152 480 l 1
 672 0 l 1
 128 0 l 1
 128 1024 l 25
EndSplineSet
Validated: 1
EndChar

StartChar: J
Encoding: 74 74 13
Width: 1280
VWidth: 0
Flags: HW
HStem: 0 44<187 414> 654 44<87 414 458 784>
VStem: 414 44<44 270 327 654>
LayerCount: 2
Fore
SplineSet
608 461 m 1
 211 64 l 1
 608 64 l 1
 608 461 l 1
128 1024 m 25
 1152 1024 l 25
 1152 960 l 25
 672 960 l 25
 672 0 l 25
 128 0 l 1
 128 64 l 1
 608 544 l 1
 608 960 l 1
 128 960 l 25
 128 1024 l 25
EndSplineSet
Validated: 1
EndChar

StartChar: N
Encoding: 78 78 14
Width: 1280
VWidth: 0
Flags: HW
HStem: 0 18G<87 131 724 784> 0 18G<87 131 724 784> 680 17G<87 148 741 784>
VStem: 87 44<0 632> 741 44<65 697>
LayerCount: 2
Fore
SplineSet
192 1024 m 5xb8
 1088 90 l 5
 1088 1024 l 5
 1152 1024 l 29
 1152 0 l 5
 1088 0 l 5
 192 934 l 5
 192 0 l 5
 128 0 l 29
 128 1024 l 5
 192 1024 l 5xb8
EndSplineSet
Validated: 1
EndChar

StartChar: Q
Encoding: 81 81 15
Width: 1280
VWidth: 0
Flags: HW
HStem: 0 44<128 439> 654 44<128 738>
VStem: 85 44<44 654> 738 44<340 654>
LayerCount: 2
Fore
SplineSet
1088 960 m 1
 192 960 l 25
 192 64 l 1
 653 64 l 1
 845 263 l 1
 608 500 l 1
 653 544 l 1
 893 304 l 1
 1088 499 l 1
 1088 960 l 1
128 1024 m 25
 1152 1024 l 1
 1152 480 l 1
 935 263 l 1
 1152 45 l 1
 1107 0 l 1
 889 218 l 1
 672 0 l 1
 128 0 l 25
 128 1024 l 25
EndSplineSet
Validated: 1
EndChar

StartChar: S
Encoding: 83 83 16
Width: 1280
VWidth: 0
Flags: HW
HStem: 0 44<87 414> 327 44<131 706> 654 44<131 784>
VStem: 87 44<370 654>
CounterMasks: 1 e0
LayerCount: 2
Fore
SplineSet
128 1024 m 29
 1152 1024 l 29
 1152 960 l 29
 192 960 l 29
 192 544 l 29
 1152 544 l 29
 1152 480 l 5
 672 0 l 29
 128 0 l 5
 128 64 l 5
 653 64 l 5
 1068 480 l 5
 128 480 l 5
 128 1024 l 29
EndSplineSet
Validated: 1
EndChar

StartChar: U
Encoding: 85 85 17
Width: 1280
VWidth: 0
Flags: HW
HStem: 0 44<440 741> 680 17G<87 131 741 784>
VStem: 87 44<353 697> 741 44<44 697>
LayerCount: 2
Fore
SplineSet
128 1024 m 5
 192 1024 l 5
 192 499 l 5
 627 64 l 5
 1088 64 l 5
 1088 1024 l 29
 1152 1024 l 29
 1152 0 l 5
 608 0 l 5
 128 480 l 5
 128 1024 l 5
EndSplineSet
Validated: 1
EndChar

StartChar: Z
Encoding: 90 90 18
Width: 1280
VWidth: 0
Flags: HW
HStem: 0 44<161 784> 654 44<87 719>
LayerCount: 2
Fore
SplineSet
128 1024 m 29
 1152 1024 l 29
 1152 960 l 5
 211 64 l 29
 1152 64 l 5
 1152 0 l 29
 128 0 l 29
 128 64 l 5
 1069 960 l 29
 128 960 l 5
 128 1024 l 29
EndSplineSet
Validated: 1
EndChar

StartChar: V
Encoding: 86 86 19
Width: 1280
VWidth: 0
Flags: HW
HStem: 0 18G<87 147> 0 18G<87 147> 680 17G<87 131 711 784>
VStem: 87 44<57 697>
LayerCount: 2
Fore
SplineSet
128 1024 m 5xb0
 192 1024 l 5
 192 109 l 5
 1107 1024 l 5
 1152 979 l 5
 192 0 l 5
 128 0 l 5
 128 1024 l 5xb0
EndSplineSet
Validated: 1
EndChar

StartChar: M
Encoding: 77 77 20
Width: 1280
VWidth: 0
Flags: HW
HStem: 0 18G<87 148 741 784> 0 18G<87 148 741 784> 680 17G<87 147 724 784>
VStem: 87 44<70 632> 741 44<0 623>
LayerCount: 2
Fore
SplineSet
589 512 m 1x38
 192 915 l 1
 192 109 l 1
 589 512 l 1x38
128 1024 m 1
 192 1024 l 1
 640 563 l 1
 1088 1024 l 1
 1152 1024 l 1
 1152 0 l 25
 1088 0 l 1
 1088 915 l 1
 192 0 l 1
 128 0 l 1xb8
 128 1024 l 1
EndSplineSet
Validated: 1
EndChar

StartChar: W
Encoding: 87 87 21
Width: 1280
VWidth: 0
Flags: HW
HStem: 0 18G<87 148 724 784> 680 17G<87 147 741 784>
VStem: 87 44<57 641> 741 44<57 697>
LayerCount: 2
Fore
SplineSet
612 510 m 1
 192 930 l 1
 192 94 l 1
 612 510 l 1
128 1024 m 1
 192 1024 l 1
 1088 128 l 1
 1088 1026 l 1
 1152 1026 l 25
 1152 0 l 1
 1128 0 l 5
 661 467 l 1
 192 0 l 1
 128 0 l 1
 128 1024 l 1
EndSplineSet
Validated: 1
EndChar

StartChar: X
Encoding: 88 88 22
Width: 1280
VWidth: 0
Flags: HW
HStem: 0 18G<87 160 711 784> 0 18G<87 160 711 784> 680 17G<87 160 711 784>
LayerCount: 2
Fore
SplineSet
128 979 m 5xa0
 173 1024 l 5
 640 557 l 5
 1107 1024 l 5
 1152 979 l 5
 685 512 l 5
 1152 45 l 5
 1107 0 l 5
 640 467 l 5
 173 0 l 5
 128 45 l 5
 595 512 l 5
 128 979 l 5xa0
EndSplineSet
Validated: 1
EndChar

StartChar: Y
Encoding: 89 89 23
Width: 1280
VWidth: 0
Flags: HW
HStem: 0 18G<414 458> 0 18G<414 458> 680 17G<87 161 711 784>
VStem: 414 44<0 349>
LayerCount: 2
Fore
SplineSet
128 979 m 5xa0
 173 1024 l 5
 640 557 l 5
 1107 1024 l 5
 1152 979 l 5
 672 499 l 5
 672 0 l 5
 608 0 l 5
 608 499 l 5
 128 979 l 5xa0
EndSplineSet
Validated: 1
EndChar

StartChar: ampersand
Encoding: 38 38 24
Width: 1280
VWidth: 0
Flags: HW
HStem: 0 44<131 684> 327 44<144 397 458 784> 654 44<444 784>
VStem: 87 44<44 327>
CounterMasks: 1 e0
LayerCount: 2
Fore
SplineSet
845 263 m 1
 634 484 l 1
 432 280 l 1
 432 64 l 1
 646 64 l 1
 845 263 l 1
912 1024 m 1
 912 896 l 1
 848 896 l 1
 848 960 l 1
 432 960 l 1
 432 784 l 1
 1152 45 l 1
 1107 0 l 1
 890 218 l 1
 672 0 l 1
 366 0 l 1
 366 304 l 1
 588 538 l 1
 147 979 l 1
 192 1024 l 1
 366 850 l 1
 368 1024 l 1
 912 1024 l 1
EndSplineSet
Validated: 1
EndChar

StartChar: zero
Encoding: 48 48 25
Width: 1283
VWidth: 0
Flags: HW
HStem: 0 50<190 850> 750 50<150 810>
VStem: 100 50<90 750> 850 50<50 710>
LayerCount: 2
Fore
SplineSet
1088 915 m 5
 237 64 l 5
 1088 64 l 5
 1088 915 l 5
1043 960 m 5
 192 960 l 5
 192 109 l 5
 1043 960 l 5
128 1024 m 29
 1152 1024 l 29
 1152 0 l 29
 128 0 l 29
 128 1024 l 29
EndSplineSet
Validated: 1
EndChar

StartChar: one
Encoding: 49 49 26
Width: 1280
VWidth: 0
Flags: HW
HStem: 0 44<87 414 458 784> 654 44<87 414>
VStem: 414 44<44 654>
LayerCount: 2
Fore
SplineSet
128 1024 m 1
 672 1024 l 1
 672 64 l 1
 1152 64 l 1
 1152 0 l 1
 128 0 l 1
 128 64 l 1
 608 64 l 1
 608 960 l 1
 128 960 l 1
 128 1024 l 1
EndSplineSet
Validated: 1
EndChar

StartChar: two
Encoding: 50 50 27
Width: 1280
VWidth: 0
Flags: HW
HStem: 0 44<131 784> 327 44<131 728> 654 44<87 444>
VStem: 87 44<44 327>
CounterMasks: 1 e0
LayerCount: 2
Fore
SplineSet
128 1027 m 1
 672 1024 l 1
 1152 544 l 1
 1152 480 l 1
 192 480 l 1
 192 64 l 1
 1152 64 l 1
 1152 0 l 1
 128 0 l 1
 128 544 l 1
 1070 544 l 1
 654 960 l 1
 128 960 l 1
 128 1027 l 1
EndSplineSet
Validated: 1
EndChar

StartChar: three
Encoding: 51 51 28
Width: 1280
VWidth: 0
Flags: HW
HStem: 0 44<87 741> 327 44<414 741> 654 44<88 741>
VStem: 741 44<44 327 370 654>
CounterMasks: 1 e0
LayerCount: 2
Fore
SplineSet
128 1024 m 1
 1152 1024 l 1
 1152 0 l 1
 128 0 l 1
 128 64 l 1
 1088 64 l 1
 1088 480 l 1
 608 480 l 1
 608 544 l 1
 1088 544 l 1
 1088 960 l 1
 128 960 l 1
 128 1024 l 1
EndSplineSet
Validated: 1
EndChar

StartChar: five
Encoding: 53 53 29
Width: 1280
VWidth: 0
Flags: HW
HStem: 0 44<87 741> 327 44<131 741> 654 44<131 784>
VStem: 87 44<370 654> 741 44<44 327>
CounterMasks: 1 e0
LayerCount: 2
Fore
SplineSet
128 1024 m 5
 1152 1024 l 5
 1152 960 l 5
 192 960 l 5
 192 544 l 5
 1152 544 l 5
 1152 0 l 5
 128 0 l 5
 128 64 l 5
 1088 64 l 5
 1088 480 l 5
 128 480 l 5
 128 1024 l 5
EndSplineSet
Validated: 1
EndChar

StartChar: six
Encoding: 54 54 30
Width: 1280
VWidth: 0
Flags: HW
HStem: 0 44<131 741> 327 44<144 741> 654 44<427 784>
VStem: 87 44<44 327> 741 44<44 327>
CounterMasks: 1 e0
LayerCount: 2
Fore
SplineSet
1088 480 m 1
 192 480 l 1
 194 64 l 1
 1088 64 l 1
 1088 480 l 1
608 1024 m 1
 1152 1024 l 1
 1152 960 l 1
 627 960 l 1
 211 544 l 1
 1152 544 l 1
 1152 0 l 1
 128 0 l 1
 128 544 l 1
 608 1024 l 1
EndSplineSet
Validated: 1
EndChar

StartChar: eight
Encoding: 56 56 31
Width: 1280
VWidth: 0
Flags: HW
HStem: 0 44<131 741> 327 44<131 741> 654 44<131 741>
VStem: 87 44<44 327 370 654> 741 44<44 327 370 654>
CounterMasks: 1 e0
LayerCount: 2
Fore
SplineSet
1089 480 m 25
 192 480 l 1
 192 64 l 1
 1089 64 l 25
 1089 480 l 25
1089 961 m 1
 192 961 l 1
 192 544 l 1
 1089 544 l 1
 1089 961 l 1
128 1024 m 1
 1152 1024 l 1
 1152 0 l 1
 128 0 l 5
 128 1024 l 1
EndSplineSet
Validated: 1
EndChar

StartChar: nine
Encoding: 57 57 32
Width: 1280
VWidth: 0
Flags: HW
HStem: 0 44<87 456> 327 44<131 728> 654 44<131 741>
VStem: 87 44<370 654> 741 44<370 654>
CounterMasks: 1 e0
LayerCount: 2
Fore
SplineSet
1088 960 m 25
 192 960 l 25
 192 544 l 25
 1088 544 l 25
 1088 960 l 25
128 1024 m 25
 1152 1024 l 25
 1152 480 l 25
 672 0 l 25
 128 0 l 1
 128 64 l 1
 653 64 l 5
 1069 480 l 1
 128 480 l 1
 128 1024 l 25
EndSplineSet
Validated: 1
EndChar

StartChar: seven
Encoding: 55 55 33
Width: 1280
VWidth: 0
Flags: HW
HStem: 0 18G<741 784> 0 18G<741 784> 654 44<87 741>
VStem: 741 44<0 654>
LayerCount: 2
Fore
SplineSet
128 1024 m 1xb0
 1152 1024 l 1
 1152 0 l 1
 1088 0 l 1
 1088 960 l 1
 128 960 l 1
 128 1024 l 1xb0
EndSplineSet
Validated: 1
EndChar

StartChar: less
Encoding: 60 60 34
Width: 800
VWidth: 0
Flags: HW
HStem: 0 18G<749 784> 680 17G<749 784>
LayerCount: 2
Fore
SplineSet
627 1024 m 5
 672 979 l 5
 205 512 l 5
 672 45 l 5
 627 0 l 5
 128 512 l 5
 627 1024 l 5
EndSplineSet
Validated: 1
EndChar

StartChar: greater
Encoding: 62 62 35
Width: 800
VWidth: 0
Flags: HW
HStem: 0 18G<-79 -44> 680 17G<-79 -44>
LayerCount: 2
Fore
SplineSet
128 979 m 5
 173 1024 l 5
 672 512 l 5
 173 0 l 5
 128 45 l 5
 595 512 l 5
 128 979 l 5
EndSplineSet
Validated: 1
EndChar

StartChar: question
Encoding: 63 63 36
Width: 1280
VWidth: 0
InSpiro: 1
Flags: HW
HStem: 0 18G<414 458> 0 18G<414 458> 327 44<458 741> 654 44<427 741>
VStem: 414 44<0 131 205 327> 741 44<370 654>
LayerCount: 2
Fore
SplineSet
128 525 m 1
 608 1024 l 1
 1152 1024 l 1
 1151 480 l 1
 672 480 l 1
 672 240 l 1
 608 240 l 1
 608 544 l 1
 1088 544 l 1
 1088 960 l 1
 653 960 l 1
 173 480 l 1
 128 525 l 1
  Spiro
    128 525 v
    607.996 1024 v
    1152 1024 v
    1151.34 479.809 v
    672 480 v
    672 240 v
    607.957 239.8 v
    608 544 v
    1088 544 v
    1088 960 v
    652.996 960 v
    173 480 v
    0 0 z
  EndSpiro
608 0 m 1
 608 128 l 1
 672 128 l 1
 672 0 l 1
 608 0 l 1
  Spiro
    607.957 0 v
    607.996 128 v
    672 128 v
    672 0.277 v
    0 0 z
  EndSpiro
EndSplineSet
Validated: 8388609
EndChar

StartChar: R
Encoding: 82 82 37
Width: 1280
VWidth: 0
Flags: HW
HStem: 0 18G<87 131> 0 18G<87 131> 327 44<144 741> 654 44<131 741>
VStem: 87 44<0 283 370 654> 741 44<370 654>
LayerCount: 2
Fore
SplineSet
1088 960 m 25x3c
 192 960 l 25
 192 544 l 25
 1088 544 l 25
 1088 960 l 25x3c
128 1024 m 25
 1152 1024 l 25
 1152 480 l 1
 237 480 l 1
 1152 -467 l 1
 1107 -512 l 1
 192 435 l 5
 192 0 l 1
 128 0 l 25xbc
 128 1024 l 25
EndSplineSet
Validated: 1
EndChar

StartChar: K
Encoding: 75 75 38
Width: 1280
VWidth: 0
Flags: HW
HStem: 0 18G<87 131 741 784> 314 44<174 741> 680 17G<87 131>
VStem: 87 44<0 314 370 697> 741 44<0 314>
LayerCount: 2
Fore
SplineSet
128 1024 m 25
 192 1024 l 1
 192 589 l 1
 1107 1536 l 1
 1152 1491 l 1
 237 544 l 1
 1152 544 l 1
 1152 0 l 1
 1088 0 l 1
 1088 480 l 1
 192 480 l 1
 192 0 l 1
 128 0 l 25
 128 1024 l 25
EndSplineSet
Validated: 1
EndChar

StartChar: backslash
Encoding: 92 92 39
Width: 1280
VWidth: 0
Flags: HW
HStem: 0 18G<712 784> 0 18G<712 784> 680 17G<87 160>
LayerCount: 2
Fore
SplineSet
128 979 m 5xa0
 173 1024 l 1
 1152 45 l 1
 1108 0 l 1
 128 979 l 5xa0
EndSplineSet
Validated: 1
EndChar

StartChar: bracketleft
Encoding: 91 91 40
Width: 560
VWidth: 0
Flags: HW
HStem: 0 44<44 131> 654 44<44 131>
VStem: 0 131<0 44 654 697> 0 44<44 654>
LayerCount: 2
Fore
SplineSet
128 1024 m 25xe0
 432 1024 l 25
 432 960 l 25xe0
 192 960 l 25
 192 64 l 25xd0
 432 64 l 25
 432 0 l 25
 128 0 l 25
 128 1024 l 25xe0
EndSplineSet
Validated: 1
EndChar

StartChar: bracketright
Encoding: 93 93 41
Width: 560
VWidth: 0
Flags: HW
HStem: 0 44<0 87> 654 44<0 87>
VStem: 0 131<0 44 654 697> 87 44<44 654>
LayerCount: 2
Fore
SplineSet
128 1024 m 29xe0
 432 1024 l 29
 432 0 l 25
 128 0 l 25
 128 64 l 25xe0
 368 64 l 25
 368 960 l 29xd0
 128 960 l 29
 128 1024 l 29xe0
EndSplineSet
Validated: 1
EndChar

StartChar: plus
Encoding: 43 43 42
Width: 1280
VWidth: 0
Flags: HW
HStem: 0 18G<414 458> 0 18G<414 458> 327 44<87 414 458 784> 680 17G<414 458>
VStem: 414 44<0 327 370 697>
LayerCount: 2
Fore
SplineSet
608 1027 m 25
 672 1027 l 25
 672 544 l 25
 1152 544 l 25
 1152 480 l 25
 672 480 l 25
 672 0 l 25
 608 0 l 25
 608 480 l 25
 128 480 l 25
 128 544 l 25
 608 544 l 25
 608 1027 l 25
EndSplineSet
Validated: 8388609
EndChar

StartChar: exclam
Encoding: 33 33 43
Width: 320
VWidth: 0
Flags: HW
HStem: 0 18G<414 458> 680 17G<414 458>
VStem: 414 44<0 131 261 697>
LayerCount: 2
Fore
SplineSet
128 1024 m 25
 192 1024 l 25
 192 240 l 29
 128 240 l 29
 128 1024 l 25
128 128 m 29
 192 128 l 29
 192 0 l 25
 128 0 l 25
 128 128 l 29
EndSplineSet
Validated: 1
EndChar

StartChar: numbersign
Encoding: 35 35 44
Width: 1280
VWidth: 0
Flags: HW
HStem: 0 18G<291 334 538 580> 0 18G<291 334 538 580> 205 43<87 291 334 538 580 784> 451 43<87 291 334 538 580 784> 680 17G<291 334 538 580>
VStem: 291 43<0 205 248 451 493 697> 538 43<0 205 248 451 493 697>
LayerCount: 2
Fore
SplineSet
848 720 m 1x3e
 432 720 l 1
 432 304 l 1
 848 304 l 1
 848 720 l 1x3e
366 1024 m 1
 432 1024 l 1
 432 784 l 1
 848 784 l 1
 848 1024 l 1
 912 1024 l 1
 912 784 l 1
 1152 784 l 1
 1152 720 l 1
 912 720 l 1
 912 304 l 1
 1152 304 l 1
 1152 240 l 1
 912 240 l 1
 912 0 l 1
 848 0 l 1
 848 240 l 1
 432 240 l 1
 432 0 l 1
 366 0 l 1xbe
 366 240 l 1
 128 240 l 1
 128 304 l 1
 366 304 l 1
 366 720 l 1
 192 720 l 1
 192 784 l 1
 366 784 l 1
 366 1024 l 1
EndSplineSet
Validated: 1
EndChar

StartChar: slash
Encoding: 47 47 45
Width: 1280
VWidth: 0
Flags: HW
HStem: 0 18G<144 214> 680 17G<658 728>
LayerCount: 2
Fore
SplineSet
1107 1024 m 5
 1152 979 l 5
 173 0 l 5
 128 45 l 5
 1107 1024 l 5
EndSplineSet
Validated: 1
EndChar

StartChar: hyphen
Encoding: 45 45 46
Width: 1280
VWidth: 0
Flags: HW
HStem: 327 44<87 784>
LayerCount: 2
Fore
SplineSet
1152 544 m 29
 1152 480 l 29
 128 480 l 29
 128 544 l 29
 1152 544 l 29
EndSplineSet
Validated: 1
EndChar

StartChar: dollar
Encoding: 36 36 47
Width: 1280
VWidth: 0
Flags: HW
HStem: 0 18G<414 458> 0 18G<414 458> 87 44<87 414 458 741> 327 44<131 414 458 741> 566 44<131 414 458 784> 680 17G<414 458>
VStem: 87 44<370 566> 414 44<0 87 131 327 370 566 610 697> 741 44<131 327>
CounterMasks: 1 0380
LayerCount: 2
Fore
SplineSet
1088 480 m 1
 672 480 l 1
 672 304 l 1
 1088 304 l 1
 1088 480 l 1
608 720 m 25
 192 720 l 25
 192 544 l 25
 608 544 l 25
 608 720 l 25
128 784 m 1
 608 784 l 1
 608 1024 l 1
 672 1024 l 1
 672 784 l 1
 1152 784 l 1
 1152 720 l 1
 672 720 l 1
 672 544 l 1
 1152 544 l 1
 1152 240 l 1
 672 240 l 1
 672 0 l 1
 608 0 l 1
 608 240 l 1
 128 240 l 1
 128 304 l 1
 608 304 l 1
 608 480 l 1
 128 480 l 1
 128 784 l 1
EndSplineSet
Validated: 8388609
EndChar

StartChar: four
Encoding: 52 52 48
Width: 1280
VWidth: 0
Flags: HW
HStem: 0 18G<414 458> 0 18G<414 458> 327 44<144 414 458 784> 680 17G<384 458>
VStem: 414 44<0 327 372 641>
LayerCount: 2
Fore
SplineSet
608 941 m 1x38
 211 544 l 1
 608 544 l 1
 608 941 l 1x38
608 1024 m 1
 672 1024 l 1
 672 544 l 1
 1152 544 l 1
 1152 480 l 1
 672 480 l 1
 672 0 l 1
 608 0 l 1xb8
 608 480 l 1
 128 480 l 1
 128 544 l 1
 608 1024 l 1
EndSplineSet
Validated: 1
EndChar

StartChar: underscore
Encoding: 95 95 49
Width: 1280
VWidth: 0
Flags: HW
HStem: 0 44<87 784>
LayerCount: 2
Fore
SplineSet
128 64 m 29
 1152 64 l 29
 1152 0 l 29
 128 0 l 29
 128 64 l 29
EndSplineSet
Validated: 1
EndChar

StartChar: period
Encoding: 46 46 50
Width: 128
VWidth: 0
Flags: HW
HStem: 0 131<406 450>
VStem: 406 44<0 131>
LayerCount: 2
Fore
SplineSet
0 0 m 1
 0 64 l 1
 128 64 l 25
 128 0 l 25
 0 0 l 1
EndSplineSet
Validated: 1
EndChar

StartChar: equal
Encoding: 61 61 51
Width: 1280
VWidth: 0
Flags: HW
HStem: 205 43<87 784> 451 43<87 784>
LayerCount: 2
Fore
SplineSet
128 304 m 1
 1152 304 l 1
 1152 240 l 1
 128 240 l 1
 128 304 l 1
128 784 m 1
 1152 784 l 1
 1152 720 l 1
 128 720 l 1
 128 784 l 1
EndSplineSet
Validated: 1
EndChar

StartChar: colon
Encoding: 58 58 52
Width: 320
VWidth: 0
Flags: HW
HStem: 0 18G<414 458> 0 18G<414 458> 680 17G<414 458>
VStem: 414 44<0 131 566 697>
LayerCount: 2
Fore
SplineSet
128 848 m 29
 192 848 l 29
 192 720 l 29
 128 720 l 29
 128 848 l 29
128 304 m 29
 192 304 l 29
 192 176 l 29
 128 176 l 29
 128 304 l 29
EndSplineSet
Validated: 8388609
EndChar

StartChar: asciicircum
Encoding: 94 94 53
Width: 1280
VWidth: 0
Flags: HW
HStem: 680 17G<418 453>
LayerCount: 2
Fore
SplineSet
128 525 m 5
 640 1024 l 5
 1152 525 l 5
 1107 480 l 5
 640 947 l 5
 173 480 l 5
 128 525 l 5
EndSplineSet
Validated: 1
EndChar

StartChar: percent
Encoding: 37 37 54
Width: 1280
VWidth: 0
Flags: HW
HStem: 0 44<580 741> 204 44<580 741> 450 44<131 291> 654 44<131 291>
VStem: 87 44<493 654> 291 44<493 654> 537 44<44 204> 741 44<44 204>
LayerCount: 2
Fore
SplineSet
1107 1024 m 5
 1152 979 l 5
 173 0 l 5
 128 45 l 5
 1107 1024 l 5
1088 64 m 5
 1088 240 l 5
 912 240 l 5
 912 64 l 5
 1088 64 l 5
368 960 m 5
 192 960 l 5
 192 784 l 5
 368 784 l 5
 368 960 l 5
128 1024 m 5
 432 1024 l 5
 432 720 l 5
 128 720 l 5
 128 1024 l 5
848 303 m 5
 1152 304 l 5
 1152 0 l 5
 848 0 l 5
 848 303 l 5
EndSplineSet
Validated: 1
EndChar

StartChar: i
Encoding: 105 105 55
Width: 320
VWidth: 0
Flags: HW
HStem: 0 18G<414 458> 680 17G<414 458>
VStem: 414 44<0 436 566 697>
LayerCount: 2
Fore
SplineSet
128 1024 m 25
 192 1024 l 25
 192 896 l 25
 128 896 l 25
 128 1024 l 25
128 784 m 29
 192 784 l 29
 192 0 l 29
 128 0 l 29
 128 784 l 29
EndSplineSet
Validated: 1
EndChar

StartChar: j
Encoding: 106 106 56
Width: 800
VWidth: 0
Flags: HW
HStem: 0 44<180 414> 680 17G<414 458>
VStem: 414 44<44 301 370 493 566 697>
LayerCount: 2
Fore
SplineSet
608 461 m 1
 211 64 l 1
 608 64 l 1
 608 461 l 1
672 816 m 25
 672 0 l 25
 128 0 l 1
 128 64 l 1
 608 544 l 1
 608 816 l 25
 672 816 l 25
608 1024 m 25
 672 1024 l 25
 672 896 l 25
 608 896 l 25
 608 1024 l 25
EndSplineSet
Validated: 1
EndChar

StartChar: h
Encoding: 104 104 57
Width: 1280
VWidth: 0
Flags: HW
HStem: 0 18G<87 131 713 784> 327 44<131 444> 680 17G<87 131>
VStem: 87 44<0 327 370 697>
LayerCount: 2
Fore
SplineSet
128 1024 m 25
 192 1024 l 25
 192 544 l 25
 1152 544 l 25
 1152 0 l 25
 1088 0 l 25
 1088 480 l 29
 192 480 l 29
 192 0 l 25
 128 0 l 25
 128 1024 l 25
EndSplineSet
Validated: 1
EndChar

StartChar: l
Encoding: 108 108 58
Width: 320
VWidth: 0
Flags: HW
HStem: 0 18G<414 458> 680 17G<414 458>
VStem: 414 44<0 697>
LayerCount: 2
Fore
SplineSet
128 1024 m 25
 192 1024 l 25
 192 0 l 25
 128 0 l 25
 128 1024 l 25
EndSplineSet
Validated: 1
EndChar

StartChar: t
Encoding: 116 116 59
Width: 1280
VWidth: 0
Flags: HW
HStem: 0 18G<414 458> 327 44<87 414 458 784> 680 17G<414 458>
VStem: 414 44<0 327 370 697>
LayerCount: 2
Fore
SplineSet
608 1027 m 29
 672 1027 l 29
 672 544 l 29
 1152 544 l 29
 1152 480 l 29
 672 480 l 29
 672 0 l 29
 608 0 l 29
 608 480 l 29
 128 480 l 29
 128 544 l 29
 608 544 l 29
 608 1027 l 29
EndSplineSet
Validated: 1
EndChar

StartChar: bar
Encoding: 124 124 60
Width: 340
VWidth: 0
Flags: HW
HStem: 0 18G<414 458> 680 17G<414 458>
VStem: 414 44<0 697>
LayerCount: 2
Fore
SplineSet
128 1536 m 25
 192 1536 l 25
 192 -512 l 25
 128 -512 l 25
 128 1536 l 25
EndSplineSet
Validated: 1
EndChar

StartChar: asciitilde
Encoding: 126 126 61
Width: 1280
VWidth: 0
InSpiro: 1
Flags: HW
HStem: 200 296
LayerCount: 2
Fore
SplineSet
128 544 m 1
 366 784 l 1
 400 784 l 1
 880 304 l 1
 1107 525 l 1
 1152 480 l 1
 912 240 l 1
 840 240 l 1
 380 700 l 1
 173 499 l 1
 128 544 l 1
  Spiro
    128 544 v
    366 784 v
    400 784 v
    880 304 v
    1107 525 v
    1152 480 v
    912 239.999 v
    840 240 v
    380 700 v
    173 499 v
    0 0 z
  EndSpiro
EndSplineSet
Validated: 1
EndChar

StartChar: g
Encoding: 103 103 62
Width: 1280
VWidth: 0
Flags: HMW
LayerCount: 2
Fore
SplineSet
1088 480 m 25
 192 480 l 25
 192 64 l 25
 1088 64 l 25
 1088 480 l 25
128 544 m 25
 1152 544 l 1
 1152 0 l 1
 672 -512 l 1
 128 -512 l 1
 128 -448 l 1
 654 -448 l 1
 1069 0 l 1
 128 0 l 1
 128 544 l 25
EndSplineSet
Validated: 1
EndChar

StartChar: o
Encoding: 111 111 63
Width: 1280
VWidth: 0
Flags: HW
HStem: 0 44<131 741> 327 44<131 741>
VStem: 87 44<44 327> 741 44<44 327>
LayerCount: 2
Fore
SplineSet
1088 480 m 29
 192 480 l 29
 192 64 l 29
 1088 64 l 29
 1088 480 l 29
128 0 m 29
 128 544 l 29
 1152 544 l 29
 1152 0 l 29
 128 0 l 29
EndSplineSet
Validated: 1
EndChar

StartChar: p
Encoding: 112 112 64
Width: 1280
VWidth: 0
Flags: HW
HStem: -327 18G<87 131> 0 44<131 741> 327 44<131 741>
VStem: 87 44<-327 0 44 327> 741 44<44 327>
LayerCount: 2
Fore
SplineSet
1088 480 m 25
 192 480 l 25
 192 64 l 25
 1088 64 l 25
 1088 480 l 25
128 544 m 25
 1152 544 l 25
 1152 0 l 25
 192 0 l 25
 192 -512 l 25
 128 -512 l 25
 128 544 l 25
EndSplineSet
Validated: 1
EndChar

StartChar: q
Encoding: 113 113 65
Width: 1280
VWidth: 0
Flags: HW
HStem: -327 18G<741 784> 0 44<131 741> 322 48<131 741>
VStem: 87 44<44 322> 741 44<-327 0 44 327>
LayerCount: 2
Fore
SplineSet
1088 480 m 25
 192 480 l 25
 192 64 l 25
 1088 64 l 25
 1088 480 l 25
128 0 m 1
 128 544 l 25
 1152 544 l 25
 1152 -512 l 1
 1088 -512 l 1
 1088 0 l 5
 128 0 l 1
EndSplineSet
Validated: 1
EndChar

StartChar: u
Encoding: 117 117 66
Width: 1280
VWidth: 0
Flags: HW
HStem: 0 44<131 741> 353 17G<87 131 741 784>
VStem: 87 44<44 370> 741 44<44 370>
LayerCount: 2
Fore
SplineSet
128 544 m 29
 192 544 l 29
 192 64 l 29
 1088 64 l 29
 1088 544 l 29
 1152 544 l 29
 1152 0 l 29
 128 0 l 29
 128 544 l 29
EndSplineSet
Validated: 1
EndChar

StartChar: a
Encoding: 97 97 67
Width: 1280
VWidth: 0
Flags: HW
HStem: 0 44<131 741> 163 44<131 741> 327 44<87 741>
VStem: 87 44<44 163> 741 44<44 163 207 327>
LayerCount: 2
Fore
SplineSet
1088 240 m 5
 192 240 l 5
 192 64 l 5
 1088 64 l 5
 1088 240 l 5
128 544 m 29
 1152 544 l 29
 1152 0 l 29
 128 0 l 29
 128 304 l 29
 1088 304 l 29
 1088 480 l 29
 128 480 l 29
 128 544 l 29
EndSplineSet
Validated: 1
EndChar

StartChar: m
Encoding: 109 109 68
Width: 1280
VWidth: 0
Flags: HW
HStem: 0 18G<87 131 414 458 741 784> 327 44<131 414 456 741>
VStem: 87 44<0 327> 414 44<0 327> 741 44<0 327>
CounterMasks: 1 38
LayerCount: 2
Fore
SplineSet
128 0 m 29
 128 544 l 29
 1152 544 l 29
 1152 0 l 29
 1088 0 l 29
 1088 480 l 29
 672 480 l 29
 674 0 l 29
 608 0 l 29
 608 480 l 29
 192 480 l 29
 192 0 l 29
 128 0 l 29
EndSplineSet
Validated: 1
EndChar

StartChar: n
Encoding: 110 110 69
Width: 1280
VWidth: 0
Flags: HW
HStem: 0 18G<87 131 741 784> 327 44<131 741>
VStem: 87 44<0 327> 741 44<0 327>
LayerCount: 2
Fore
SplineSet
128 0 m 29
 128 544 l 29
 1152 544 l 29
 1152 0 l 29
 1088 0 l 29
 1088 480 l 29
 192 480 l 29
 192 0 l 29
 128 0 l 29
EndSplineSet
Validated: 1
EndChar

StartChar: r
Encoding: 114 114 70
Width: 1280
VWidth: 0
Flags: HW
HStem: 0 18G<87 131> 327 44<131 784>
VStem: 87 44<0 327>
LayerCount: 2
Fore
SplineSet
128 0 m 25
 128 544 l 25
 1152 544 l 25
 1152 480 l 25
 192 480 l 25
 192 0 l 25
 128 0 l 25
EndSplineSet
Validated: 1
EndChar

StartChar: b
Encoding: 98 98 71
Width: 1280
VWidth: 0
Flags: HW
HStem: 0 44<131 741> 327 44<131 741> 680 17G<87 131>
VStem: 87 44<44 327 370 697> 741 44<44 327>
LayerCount: 2
Fore
SplineSet
1088 480 m 25
 192 480 l 25
 192 64 l 25
 1088 64 l 25
 1088 480 l 25
128 1024 m 25
 192 1024 l 25
 192 544 l 25
 1152 544 l 25
 1152 0 l 25
 128 0 l 25
 128 1024 l 25
EndSplineSet
Validated: 1
EndChar

StartChar: c
Encoding: 99 99 72
Width: 1280
VWidth: 0
Flags: HW
HStem: 0 44<131 784> 327 44<131 784>
VStem: 87 44<44 327>
LayerCount: 2
Fore
SplineSet
128 544 m 29
 1152 544 l 29
 1152 480 l 29
 192 480 l 29
 192 64 l 29
 1152 64 l 29
 1152 0 l 29
 128 0 l 29
 128 544 l 29
EndSplineSet
Validated: 1
EndChar

StartChar: d
Encoding: 100 100 73
Width: 1280
VWidth: 0
Flags: HW
HStem: 0 44<131 741> 327 44<131 741> 680 17G<741 784>
VStem: 87 44<44 327> 741 44<44 327 370 697>
LayerCount: 2
Fore
SplineSet
1088 480 m 29
 192 480 l 29
 192 64 l 29
 1088 64 l 29
 1088 480 l 29
128 544 m 29
 1088 544 l 29
 1088 1024 l 29
 1152 1024 l 29
 1152 0 l 29
 128 0 l 29
 128 544 l 29
EndSplineSet
Validated: 1
EndChar

StartChar: e
Encoding: 101 101 74
Width: 1280
VWidth: 0
Flags: HW
HStem: 0 44<131 784> 163 44<179 741> 327 44<431 741>
VStem: 87 44<44 163> 741 44<207 327>
LayerCount: 2
Fore
SplineSet
1088 480 m 1
 387 480 l 5
 211 304 l 1
 1088 304 l 1
 1088 480 l 1
366 544 m 1
 1152 544 l 1
 1152 240 l 25
 192 240 l 25
 192 64 l 25
 1152 64 l 25
 1152 0 l 25
 128 0 l 1
 128 304 l 1
 366 544 l 1
EndSplineSet
Validated: 1
EndChar

StartChar: f
Encoding: 102 102 75
Width: 1280
VWidth: 0
Flags: HW
HStem: 0 18G<414 458> 327 44<87 414 458 784> 654 44<458 784>
VStem: 414 44<0 327 370 654>
LayerCount: 2
Fore
SplineSet
608 0 m 25
 608 480 l 25
 128 480 l 25
 128 544 l 25
 608 544 l 25
 608 1024 l 25
 1152 1024 l 25
 1152 960 l 25
 672 960 l 25
 672 544 l 25
 1152 544 l 29
 1152 480 l 29
 672 480 l 25
 672 0 l 25
 608 0 l 25
EndSplineSet
Validated: 1
EndChar

StartChar: s
Encoding: 115 115 76
Width: 1280
VWidth: 0
Flags: HW
HStem: 0 44<87 741> 163 44<131 741> 327 44<131 784>
VStem: 87 44<207 327> 741 44<44 163>
LayerCount: 2
Fore
SplineSet
128 544 m 25
 1152 544 l 25
 1152 480 l 25
 192 480 l 29
 192 304 l 29
 1152 304 l 25
 1152 0 l 25
 128 0 l 25
 128 64 l 25
 1089 64 l 25
 1089 240 l 25
 128 240 l 25
 128 544 l 25
EndSplineSet
Validated: 1
EndChar

StartChar: at
Encoding: 64 64 77
Width: 1280
VWidth: 0
Flags: HW
HStem: 0 44<131 784> 207 44<261 741> 447 44<261 741> 654 44<131 741>
VStem: 87 44<44 654> 218 44<250 447> 741 44<250 447 491 654>
LayerCount: 2
Fore
SplineSet
1088 720 m 25
 432 720 l 1
 432 304 l 25
 1088 304 l 1
 1088 720 l 25
1152 240 m 25
 368 240 l 25
 368 784 l 25
 1088 784 l 25
 1088 960 l 1
 192 960 l 1
 192 64 l 1
 1152 64 l 9
 1152 0 l 1
 128 0 l 1
 128 1024 l 1
 1152 1024 l 1
 1152 240 l 25
EndSplineSet
Validated: 1
EndChar

StartChar: v
Encoding: 118 118 78
Width: 1280
VWidth: 0
Flags: HW
HStem: 0 18G<273 340> 353 17G<273 316 584 652>
VStem: 273 44<57 370>
LayerCount: 2
Fore
SplineSet
128 544 m 1xb0
 192 544 l 1
 192 109 l 1
 1107 1024 l 1
 1152 979 l 1
 192 0 l 1
 128 0 l 1
 128 544 l 1xb0
EndSplineSet
Validated: 1
EndChar

StartChar: y
Encoding: 121 121 79
Width: 1280
VWidth: 0
Flags: HW
HStem: -327 18G<87 160> 353 17G<87 160 711 784>
LayerCount: 2
Fore
SplineSet
128 499 m 5
 173 544 l 5
 640 77 l 5
 1107 544 l 5
 1152 499 l 5
 173 -512 l 5
 128 -467 l 5
 595 32 l 5
 128 499 l 5
EndSplineSet
Validated: 1
EndChar

StartChar: z
Encoding: 122 122 80
Width: 1280
VWidth: 0
Flags: HW
HStem: 0 44<187 784> 327 44<87 684>
LayerCount: 2
Fore
SplineSet
128 544 m 25
 672 544 l 25
 672 480 l 1
 211 64 l 25
 1152 64 l 1
 1152 0 l 25
 128 0 l 1
 128 64 l 1
 589 480 l 1
 128 480 l 1
 128 544 l 25
EndSplineSet
Validated: 1
EndChar

StartChar: k
Encoding: 107 107 81
Width: 1280
VWidth: 0
InSpiro: 1
Flags: HW
HStem: 0 18G<87 131 411 484> 327 44<176 484> 680 17G<87 131>
VStem: 87 44<0 314 370 697>
LayerCount: 2
Fore
SplineSet
128 1024 m 1
 192 1024 l 1
 192 544 l 1
 1152 544 l 1
 1152 480 l 1
 237 480 l 1
 1152 -467 l 1
 1107 -512 l 1
 192 435 l 1
 192 0 l 1
 128 0 l 1
 128 1024 l 1
  Spiro
    128 1024 v
    192 1024 v
    192 544 v
    1152 544 v
    1152 480 v
    237 480 v
    1152 -466.917 v
    1107 -512 v
    192 435 v
    192 0 v
    128 0 v
    0 0 z
  EndSpiro
EndSplineSet
Validated: 1
EndChar

StartChar: w
Encoding: 119 119 82
Width: 1280
VWidth: 0
Flags: HW
HStem: 0 18G<114 194 734 811> 353 17G<114 191 768 811>
VStem: 114 44<52 318> 768 44<52 370>
LayerCount: 2
Fore
SplineSet
381 272 m 1
 192 461 l 1
 192 83 l 1
 381 272 l 1
128 544 m 1
 192 544 l 1
 672 64 l 1
 1088 64 l 1
 1088 544 l 1
 1152 544 l 25
 1152 0 l 1
 654 0 l 1
 423 231 l 1
 192 0 l 1
 128 0 l 1
 128 544 l 1
EndSplineSet
Validated: 1
EndChar

StartChar: x
Encoding: 120 120 83
Width: 1280
VWidth: 0
Flags: HW
HStem: 0 18G<87 190 680 784> 353 17G<87 190 682 784>
LayerCount: 2
Fore
SplineSet
368 499 m 5
 413 544 l 5
 640 317 l 5
 867 544 l 5
 1152 544 l 5
 1152 480 l 5
 893 480 l 5
 685 272 l 5
 912 45 l 5
 867 0 l 5
 640 227 l 5
 413 0 l 5
 128 0 l 5
 129 64 l 5
 387 64 l 5
 595 272 l 5
 368 499 l 5
EndSplineSet
Validated: 1
EndChar

StartChar: comma
Encoding: 44 44 85
Width: 320
VWidth: 0
Flags: HW
HStem: -44 174
VStem: 349 174
LayerCount: 2
Fore
SplineSet
128 26 m 5
 128 128 l 5
 192 128 l 5
 192 0 l 5
 65 -127 l 5
 20 -82 l 5
 128 26 l 5
EndSplineSet
Validated: 1
EndChar

StartChar: quotesingle
Encoding: 39 39 86
Width: 560
VWidth: 0
Flags: HW
HStem: 566 340
VStem: 414 44<566 832>
LayerCount: 2
Fore
SplineSet
173 1024 m 5
 432 765 l 5
 385 720 l 5
 128 979 l 5
 173 1024 l 5
EndSplineSet
Validated: 1
EndChar

StartChar: grave
Encoding: 96 96 87
Width: 560
VWidth: 0
Flags: HW
HStem: 523 174
VStem: 349 174
LayerCount: 2
Fore
SplineSet
173 1024 m 5
 432 765 l 5
 385 720 l 5
 128 979 l 5
 173 1024 l 5
EndSplineSet
Validated: 1
EndChar

StartChar: semicolon
Encoding: 59 59 88
Width: 320
VWidth: 0
Flags: HW
VStem: 655 44<261 392>
LayerCount: 2
Fore
SplineSet
128 848 m 25
 192 848 l 25
 192 720 l 25
 128 720 l 25
 128 848 l 25
126 24 m 1
 126 128 l 1
 192 128 l 1
 192 0 l 1
 65 -127 l 1
 20 -82 l 1
 126 24 l 1
EndSplineSet
Validated: 1
EndChar

StartChar: exclamdown
Encoding: 161 161 89
Width: 871
VWidth: 0
Flags: HW
VStem: 414 44<-131 305 436 566>
LayerCount: 2
Fore
SplineSet
414 566 m 25
 458 566 l 25
 458 436 l 25
 414 436 l 25
 414 566 l 25
414 305 m 25
 458 305 l 25
 458 -131 l 25
 414 -131 l 25
 414 305 l 25
EndSplineSet
Validated: 1
EndChar

StartChar: quotedbl
Encoding: 34 34 90
Width: 740
VWidth: 0
Flags: HW
HStem: 566 340
VStem: 327 44<566 832> 501 44<566 832>
LayerCount: 2
Fore
SplineSet
353 1024 m 1
 612 765 l 1
 565 720 l 1
 308 979 l 1
 353 1024 l 1
173 1024 m 1
 432 765 l 1
 385 720 l 1
 128 979 l 1
 173 1024 l 1
EndSplineSet
Validated: 1
EndChar

StartChar: parenright
Encoding: 41 41 91
Width: 560
VWidth: 0
Flags: HW
HStem: 0 18G<0 27> 680 17G<0 27>
VStem: 196 44<179 519>
LayerCount: 2
Fore
SplineSet
192 1264 m 1
 432 1024 l 1
 432 0 l 1
 192 -240 l 1
 147 -195 l 1
 368 26 l 1
 368 998 l 1
 147 1219 l 1
 192 1264 l 1
EndSplineSet
Validated: 1
EndChar

StartChar: parenleft
Encoding: 40 40 92
Width: 560
VWidth: 0
Flags: HW
HStem: 0 18G<474 501> 680 17G<474 501>
VStem: 261 44<179 519>
LayerCount: 2
Fore
SplineSet
368 1264 m 1
 413 1219 l 1
 192 998 l 1
 192 26 l 1
 413 -195 l 1
 368 -240 l 1
 128 0 l 1
 128 1024 l 1
 368 1264 l 1
EndSplineSet
Validated: 1
EndChar

StartChar: braceleft
Encoding: 123 123 93
Width: 800
VWidth: 0
Flags: HW
HStem: 0 44<458 545> 654 44<458 545>
VStem: 414 131<0 44 654 697> 414 44<44 174 523 654>
LayerCount: 2
Fore
SplineSet
672 1024 m 1xe0
 672 960 l 1xe0
 432 960 l 1
 432 720 l 1
 222 510 l 1
 432 304 l 1
 432 64 l 1xd0
 672 64 l 1
 672 0 l 1
 366 0 l 1xe0
 366 272 l 1
 128 510 l 1
 366 748 l 1xd0
 366 1024 l 1
 672 1024 l 1xe0
EndSplineSet
Validated: 1
EndChar

StartChar: braceright
Encoding: 125 125 94
Width: 800
VWidth: 0
Flags: HW
HStem: 0 44<128 215> 654 44<128 215>
VStem: 128 131<0 44 654 697> 215 44<44 174 523 654>
LayerCount: 2
Fore
SplineSet
432 1024 m 1xe0
 432 752 l 1
 672 512 l 1
 432 272 l 1xd0
 432 0 l 1
 128 0 l 1
 128 64 l 1xe0
 366 64 l 1
 366 304 l 1
 574 512 l 1
 366 720 l 1
 366 960 l 1xd0
 128 960 l 1
 128 1024 l 1
 432 1024 l 1xe0
EndSplineSet
Validated: 1
EndChar

StartChar: Agrave
Encoding: 192 192 95
Width: 1280
VWidth: 0
Flags: HW
HStem: 0 18G<87 131 741 784> 327 44<131 741> 654 44<492 741>
VStem: 87 44<0 327> 741 44<0 327 370 654>
LayerCount: 2
Fore
SplineSet
552 1517 m 5
 792 1261 l 5
 747 1216 l 5
 505 1472 l 5
 552 1517 l 5
1088 960 m 1
 237 960 l 1
 1088 110 l 1
 1088 960 l 1
128 1024 m 1
 1152 1024 l 1
 1152 0 l 1
 1107 0 l 1
 192 915 l 1
 192 0 l 1
 128 0 l 1
 128 1024 l 1
EndSplineSet
Validated: 1
EndChar

StartChar: Aacute
Encoding: 193 193 96
Width: 1280
VWidth: 0
Flags: HW
HStem: 0 18G<87 131 741 784> 327 44<131 741> 654 44<131 741>
VStem: 87 44<0 327 370 654> 741 44<0 327 370 654>
LayerCount: 2
Fore
SplineSet
747 1536 m 5
 792 1491 l 5
 533 1216 l 5
 488 1261 l 5
 747 1536 l 5
1088 960 m 1
 237 960 l 1
 1088 110 l 1
 1088 960 l 1
128 1024 m 1
 1152 1024 l 1
 1152 0 l 1
 1107 0 l 1
 192 915 l 1
 192 0 l 1
 128 0 l 1
 128 1024 l 1
EndSplineSet
Validated: 1
EndChar

StartChar: acute
Encoding: 180 180 97
Width: 560
VWidth: 0
Flags: HW
HStem: 523 174
VStem: 349 174
LayerCount: 2
Fore
SplineSet
387 1536 m 1
 432 1491 l 1
 173 1216 l 1
 128 1261 l 1
 387 1536 l 1
EndSplineSet
Validated: 1
EndChar

StartChar: Acircumflex
Encoding: 194 194 98
Width: 1280
VWidth: 0
Flags: HW
HStem: 0 18G<87 131 741 784> 327 44<131 741> 654 44<131 741>
VStem: 87 44<0 327 370 654> 741 44<0 327 370 654>
LayerCount: 2
Fore
SplineSet
640 1538 m 5
 912 1261 l 5
 867 1216 l 5
 640 1453 l 5
 413 1216 l 5
 366 1261 l 5
 640 1538 l 5
1088 960 m 1
 237 960 l 1
 1088 110 l 1
 1088 960 l 1
128 1024 m 1
 1152 1024 l 1
 1152 0 l 1
 1107 0 l 1
 192 915 l 1
 192 0 l 1
 128 0 l 1
 128 1024 l 1
EndSplineSet
Validated: 1
EndChar

StartChar: Atilde
Encoding: 195 195 99
Width: 1280
VWidth: 0
Flags: HW
HStem: 0 18G<87 131 741 784> 327 44<131 741> 654 44<131 741>
VStem: 87 44<0 327 370 654> 741 44<0 327 370 654>
LayerCount: 2
Fore
SplineSet
216 1261 m 5
 491 1536 l 5
 723 1304 l 5
 955 1536 l 5
 1000 1491 l 5
 725 1216 l 5
 493 1448 l 5
 261 1216 l 5
 216 1261 l 5
1088 960 m 1
 237 960 l 1
 1088 110 l 1
 1088 960 l 1
128 1024 m 1
 1152 1024 l 1
 1152 0 l 1
 1107 0 l 1
 192 915 l 1
 192 0 l 1
 128 0 l 1
 128 1024 l 1
EndSplineSet
Validated: 1
EndChar

StartChar: Adieresis
Encoding: 196 196 100
Width: 1280
VWidth: 0
Flags: HW
HStem: 0 18G<87 131 741 784> 327 44<131 741> 654 44<131 741> 784 131<318 362 519 562>
VStem: 87 44<0 327 370 654> 318 44<784 915> 519 44<784 915> 741 44<0 327 370 654>
LayerCount: 2
Fore
SplineSet
848 1536 m 5
 912 1539 l 5
 912 1216 l 5
 848 1216 l 5
 848 1536 l 5
366 1536 m 5
 432 1536 l 5
 432 1216 l 5
 366 1216 l 5
 366 1536 l 5
1088 960 m 1
 237 960 l 1
 1088 110 l 1
 1088 960 l 1
128 1024 m 1
 1152 1024 l 1
 1152 0 l 1
 1107 0 l 1
 192 915 l 1
 192 0 l 1
 128 0 l 1
 128 1024 l 1
EndSplineSet
Validated: 1
EndChar

StartChar: Aring
Encoding: 197 197 101
Width: 1280
VWidth: 0
Flags: HW
HStem: 0 18G<87 131 741 784> 327 44<131 741> 654 44<131 741> 784 44<362 519> 871 44<362 519>
VStem: 87 44<0 327 370 654> 318 44<828 871> 519 44<828 871> 741 44<0 327 370 654>
LayerCount: 2
Fore
SplineSet
848 1472 m 29
 432 1472 l 29
 432 1280 l 29
 848 1280 l 29
 848 1472 l 29
366 1536 m 5
 912 1536 l 5
 912 1216 l 5
 366 1216 l 5
 366 1536 l 5
1088 960 m 1
 237 960 l 1
 1088 110 l 1
 1088 960 l 1
128 1024 m 1
 1152 1024 l 1
 1152 0 l 1
 1107 0 l 1
 192 915 l 1
 192 0 l 1
 128 0 l 1
 128 1024 l 1
EndSplineSet
Validated: 1
EndChar

StartChar: AE
Encoding: 198 198 102
Width: 1280
VWidth: 0
Flags: HW
HStem: 0 44<458 784> 327 44<131 414 458 621> 654 44<131 414 458 784>
VStem: 87 44<0 327 370 654> 414 44<44 327 370 654>
CounterMasks: 1 e0
LayerCount: 2
Fore
SplineSet
608 941 m 1
 211 544 l 1
 608 544 l 1
 608 941 l 1
608 1024 m 1
 1152 1024 l 1
 1152 960 l 1
 672 960 l 1
 672 544 l 1
 912 544 l 1
 912 480 l 1
 672 480 l 1
 672 64 l 1
 1152 64 l 1
 1152 0 l 1
 608 0 l 25
 608 480 l 25
 192 480 l 25
 192 0 l 25
 128 0 l 17
 128 544 l 1
 608 1024 l 1
EndSplineSet
Validated: 1
EndChar

StartChar: Ccedilla
Encoding: 199 199 103
Width: 1280
VWidth: 0
Flags: HW
HStem: 0 44<131 458 515 784> 654 44<131 784>
VStem: 87 44<44 654>
LayerCount: 2
Fore
SplineSet
608 1024 m 9
 1152 1024 l 1
 1152 960 l 1
 627 960 l 1
 192 525 l 1
 192 64 l 1
 1152 64 l 1
 1152 0 l 1
 669 0 l 1
 413 -256 l 1
 366 -211 l 1
 577 0 l 1
 128 0 l 1
 128 544 l 1
 608 1024 l 9
EndSplineSet
Validated: 1
EndChar

StartChar: Egrave
Encoding: 200 200 104
Width: 1280
VWidth: 0
Flags: HW
HStem: 0 44<131 784> 327 44<131 458> 654 44<131 784>
VStem: 87 44<44 327 370 654>
CounterMasks: 1 e0
LayerCount: 2
Fore
SplineSet
552 1517 m 5
 792 1261 l 5
 747 1216 l 5
 505 1472 l 5
 552 1517 l 5
128 1024 m 25
 1152 1024 l 25
 1152 960 l 25
 192 960 l 25
 192 544 l 25
 672 544 l 25
 672 480 l 25
 192 480 l 25
 192 64 l 25
 1152 64 l 25
 1152 0 l 25
 128 0 l 25
 128 1024 l 25
EndSplineSet
Validated: 1
EndChar

StartChar: Eacute
Encoding: 201 201 105
Width: 1280
VWidth: 0
Flags: HW
HStem: 0 44<131 784> 327 44<131 458> 654 44<131 784>
VStem: 87 44<44 327 370 654>
CounterMasks: 1 e0
LayerCount: 2
Fore
SplineSet
747 1536 m 5
 792 1491 l 5
 533 1216 l 5
 488 1261 l 5
 747 1536 l 5
128 1024 m 25
 1152 1024 l 25
 1152 960 l 25
 192 960 l 25
 192 544 l 25
 672 544 l 25
 672 480 l 25
 192 480 l 25
 192 64 l 25
 1152 64 l 25
 1152 0 l 25
 128 0 l 25
 128 1024 l 25
EndSplineSet
Validated: 1
EndChar

StartChar: Ecircumflex
Encoding: 202 202 106
Width: 1280
VWidth: 0
Flags: HW
HStem: 0 44<131 784> 327 44<131 458> 654 44<131 784>
VStem: 87 44<44 327 370 654>
CounterMasks: 1 e0
LayerCount: 2
Fore
SplineSet
640 1538 m 5
 912 1261 l 5
 867 1216 l 5
 640 1453 l 5
 413 1216 l 5
 366 1261 l 5
 640 1538 l 5
128 1024 m 25
 1152 1024 l 25
 1152 960 l 25
 192 960 l 25
 192 544 l 25
 672 544 l 25
 672 480 l 25
 192 480 l 25
 192 64 l 25
 1152 64 l 25
 1152 0 l 25
 128 0 l 25
 128 1024 l 25
EndSplineSet
Validated: 1
EndChar

StartChar: Edieresis
Encoding: 203 203 107
Width: 1280
VWidth: 0
Flags: HW
HStem: 0 44<131 784> 327 44<131 458> 654 44<131 784> 784 131<318 362 519 562>
VStem: 87 44<44 327 370 654> 318 44<784 915> 519 44<784 915>
LayerCount: 2
Fore
SplineSet
848 1536 m 5
 912 1539 l 5
 912 1216 l 5
 848 1216 l 5
 848 1536 l 5
366 1536 m 5
 432 1536 l 5
 432 1216 l 5
 366 1216 l 5
 366 1536 l 5
128 1024 m 25
 1152 1024 l 25
 1152 960 l 25
 192 960 l 25
 192 544 l 25
 672 544 l 25
 672 480 l 25
 192 480 l 25
 192 64 l 25
 1152 64 l 25
 1152 0 l 25
 128 0 l 25
 128 1024 l 25
EndSplineSet
Validated: 1
EndChar

StartChar: Igrave
Encoding: 204 204 108
Width: 1280
VWidth: 0
Flags: HW
HStem: 0 44<87 414 458 784> 654 44<87 414 458 784>
VStem: 414 44<44 654>
LayerCount: 2
Fore
SplineSet
552 1517 m 5
 792 1261 l 5
 747 1216 l 5
 505 1472 l 5
 552 1517 l 5
128 1024 m 25
 1152 1024 l 25
 1152 960 l 25
 672 960 l 25
 672 64 l 25
 1152 64 l 25
 1152 0 l 25
 128 0 l 25
 128 64 l 25
 608 64 l 25
 608 960 l 25
 128 960 l 25
 128 1024 l 25
EndSplineSet
Validated: 1
EndChar

StartChar: Iacute
Encoding: 205 205 109
Width: 1280
VWidth: 0
Flags: HW
HStem: 0 44<87 414 458 784> 654 44<87 414 458 784>
VStem: 414 44<44 654>
LayerCount: 2
Fore
SplineSet
747 1536 m 5
 792 1491 l 5
 533 1216 l 5
 488 1261 l 5
 747 1536 l 5
128 1024 m 25
 1152 1024 l 25
 1152 960 l 25
 672 960 l 25
 672 64 l 25
 1152 64 l 25
 1152 0 l 25
 128 0 l 25
 128 64 l 25
 608 64 l 25
 608 960 l 25
 128 960 l 25
 128 1024 l 25
EndSplineSet
Validated: 1
EndChar

StartChar: Icircumflex
Encoding: 206 206 110
Width: 1280
VWidth: 0
Flags: HW
HStem: 0 44<87 414 458 784> 654 44<87 414 458 784>
VStem: 414 44<44 654>
LayerCount: 2
Fore
SplineSet
640 1538 m 5
 912 1261 l 5
 867 1216 l 5
 640 1453 l 5
 413 1216 l 5
 366 1261 l 5
 640 1538 l 5
128 1024 m 25
 1152 1024 l 25
 1152 960 l 25
 672 960 l 25
 672 64 l 25
 1152 64 l 25
 1152 0 l 25
 128 0 l 25
 128 64 l 25
 608 64 l 25
 608 960 l 25
 128 960 l 25
 128 1024 l 25
EndSplineSet
Validated: 1
EndChar

StartChar: Idieresis
Encoding: 207 207 111
Width: 1280
VWidth: 0
Flags: HW
HStem: 0 44<87 414 458 784> 654 44<87 414 458 784> 784 131<318 362 519 562>
VStem: 318 44<784 915> 414 44<44 654> 519 44<784 915>
LayerCount: 2
Fore
SplineSet
848 1536 m 5
 912 1539 l 5
 912 1216 l 5
 848 1216 l 5
 848 1536 l 5
366 1536 m 5
 432 1536 l 5
 432 1216 l 5
 366 1216 l 5
 366 1536 l 5
128 1024 m 25
 1152 1024 l 25
 1152 960 l 25
 672 960 l 25
 672 64 l 25
 1152 64 l 25
 1152 0 l 25
 128 0 l 25
 128 64 l 25
 608 64 l 25
 608 960 l 25
 128 960 l 25
 128 1024 l 25
EndSplineSet
Validated: 1
EndChar

StartChar: Eth
Encoding: 208 208 112
Width: 1280
VWidth: 0
Flags: HW
HStem: 0 44<131 741> 327 44<0 87 131 458> 654 44<131 444>
VStem: 87 44<44 327 370 654> 741 44<44 357>
CounterMasks: 1 e0
LayerCount: 2
Fore
SplineSet
653 960 m 1
 192 960 l 1
 192 544 l 1
 432 544 l 5
 432 480 l 5
 192 478 l 1
 192 64 l 1
 1088 64 l 1
 1088 525 l 1
 653 960 l 1
128 1024 m 1
 672 1024 l 25
 1152 543 l 1
 1152 0 l 25
 128 0 l 1
 128 480 l 1
 64 480 l 1
 64 544 l 1
 128 544 l 1
 128 1024 l 1
EndSplineSet
Validated: 1
EndChar

StartChar: Ntilde
Encoding: 209 209 113
Width: 1280
VWidth: 0
Flags: HW
HStem: 0 18G<87 131 724 784> 680 17G<87 148 741 784>
VStem: 87 44<0 632> 741 44<65 697>
LayerCount: 2
Fore
SplineSet
216 1261 m 5
 491 1536 l 5
 723 1304 l 5
 955 1536 l 5
 1000 1491 l 5
 725 1216 l 5
 493 1448 l 5
 261 1216 l 5
 216 1261 l 5
192 1024 m 1xb8
 1088 90 l 1
 1088 1024 l 1
 1152 1024 l 25
 1152 0 l 1
 1088 0 l 1
 192 934 l 1
 192 0 l 1
 128 0 l 25
 128 1024 l 1
 192 1024 l 1xb8
EndSplineSet
Validated: 1
EndChar

StartChar: Ograve
Encoding: 210 210 114
Width: 1280
VWidth: 0
Flags: HW
HStem: 0 44<131 741> 654 44<131 741>
VStem: 87 44<44 654> 741 44<44 654>
LayerCount: 2
Fore
SplineSet
552 1517 m 1
 792 1261 l 1
 747 1216 l 1
 505 1472 l 1
 552 1517 l 1
1088 960 m 29
 192 960 l 29
 192 64 l 29
 1088 64 l 29
 1088 960 l 29
128 1024 m 29
 1152 1024 l 29
 1152 0 l 29
 128 0 l 29
 128 1024 l 29
EndSplineSet
Validated: 1
EndChar

StartChar: Oacute
Encoding: 211 211 115
Width: 1280
VWidth: 0
Flags: HW
HStem: 0 44<131 741> 654 44<131 741>
VStem: 87 44<44 654> 741 44<44 654>
LayerCount: 2
Fore
SplineSet
747 1536 m 5
 792 1491 l 5
 533 1216 l 5
 488 1261 l 5
 747 1536 l 5
1088 960 m 25
 192 960 l 25
 192 64 l 25
 1088 64 l 25
 1088 960 l 25
128 1024 m 25
 1152 1024 l 25
 1152 0 l 25
 128 0 l 25
 128 1024 l 25
EndSplineSet
Validated: 1
EndChar

StartChar: Ocircumflex
Encoding: 212 212 116
Width: 1280
VWidth: 0
Flags: HW
HStem: 0 44<131 741> 654 44<131 741>
VStem: 87 44<44 654> 741 44<44 654>
LayerCount: 2
Fore
SplineSet
640 1538 m 5
 912 1261 l 5
 867 1216 l 5
 640 1453 l 5
 413 1216 l 5
 366 1261 l 5
 640 1538 l 5
1088 960 m 25
 192 960 l 25
 192 64 l 25
 1088 64 l 25
 1088 960 l 25
128 1024 m 25
 1152 1024 l 25
 1152 0 l 25
 128 0 l 25
 128 1024 l 25
EndSplineSet
Validated: 1
EndChar

StartChar: Otilde
Encoding: 213 213 117
Width: 1280
VWidth: 0
Flags: HW
HStem: 0 44<131 741> 654 44<131 741>
VStem: 87 44<44 654> 741 44<44 654>
LayerCount: 2
Fore
SplineSet
216 1261 m 5
 491 1536 l 5
 723 1304 l 5
 955 1536 l 5
 1000 1491 l 5
 725 1216 l 5
 493 1448 l 5
 261 1216 l 5
 216 1261 l 5
1088 960 m 25
 192 960 l 25
 192 64 l 25
 1088 64 l 25
 1088 960 l 25
128 1024 m 25
 1152 1024 l 25
 1152 0 l 25
 128 0 l 25
 128 1024 l 25
EndSplineSet
Validated: 1
EndChar

StartChar: Odieresis
Encoding: 214 214 118
Width: 1280
VWidth: 0
Flags: HW
HStem: 0 44<131 741> 654 44<131 741> 784 131<318 362 519 562>
VStem: 87 44<44 654> 318 44<784 915> 519 44<784 915> 741 44<44 654>
LayerCount: 2
Fore
SplineSet
848 1536 m 5
 912 1539 l 5
 912 1216 l 5
 848 1216 l 5
 848 1536 l 5
366 1536 m 5
 432 1536 l 5
 432 1216 l 5
 366 1216 l 5
 366 1536 l 5
1088 960 m 25
 192 960 l 25
 192 64 l 25
 1088 64 l 25
 1088 960 l 25
128 1024 m 25
 1152 1024 l 25
 1152 0 l 25
 128 0 l 25
 128 1024 l 25
EndSplineSet
Validated: 1
EndChar

StartChar: multiply
Encoding: 215 215 119
Width: 1280
VWidth: 0
Flags: HW
HStem: 0 18G<87 160 711 784> 680 17G<87 160 711 784>
LayerCount: 2
Fore
SplineSet
128 979 m 5xa0
 173 1024 l 5
 640 557 l 5
 1107 1024 l 5
 1152 979 l 5
 685 512 l 5
 1152 45 l 5
 1107 0 l 5
 640 467 l 5
 173 0 l 5
 128 45 l 5
 595 512 l 5
 128 979 l 5xa0
EndSplineSet
Validated: 1
EndChar

StartChar: Ugrave
Encoding: 217 217 120
Width: 1280
VWidth: 0
Flags: HW
HStem: 0 44<440 741> 680 17G<87 131 741 784>
VStem: 87 44<353 697> 741 44<44 697>
LayerCount: 2
Fore
SplineSet
552 1517 m 5
 792 1261 l 5
 747 1216 l 5
 505 1472 l 5
 552 1517 l 5
128 1024 m 1
 192 1024 l 1
 192 499 l 1
 627 64 l 1
 1088 64 l 1
 1088 1024 l 25
 1152 1024 l 25
 1152 0 l 1
 608 0 l 1
 128 480 l 1
 128 1024 l 1
EndSplineSet
Validated: 1
EndChar

StartChar: Uacute
Encoding: 218 218 121
Width: 1280
VWidth: 0
Flags: HW
HStem: 0 44<440 741> 680 17G<87 131 741 784>
VStem: 87 44<353 697> 741 44<44 697>
LayerCount: 2
Fore
SplineSet
747 1536 m 5
 792 1491 l 5
 533 1216 l 5
 488 1261 l 5
 747 1536 l 5
128 1024 m 1
 192 1024 l 1
 192 499 l 1
 627 64 l 1
 1088 64 l 1
 1088 1024 l 25
 1152 1024 l 25
 1152 0 l 1
 608 0 l 1
 128 480 l 1
 128 1024 l 1
EndSplineSet
Validated: 1
EndChar

StartChar: Ucircumflex
Encoding: 219 219 122
Width: 1280
VWidth: 0
Flags: HW
HStem: 0 44<440 741> 680 17G<87 131 741 784>
VStem: 87 44<353 697> 741 44<44 697>
LayerCount: 2
Fore
SplineSet
640 1538 m 5
 912 1261 l 5
 867 1216 l 5
 640 1453 l 5
 413 1216 l 5
 366 1261 l 5
 640 1538 l 5
128 1024 m 1
 192 1024 l 1
 192 499 l 1
 627 64 l 1
 1088 64 l 1
 1088 1024 l 25
 1152 1024 l 25
 1152 0 l 1
 608 0 l 1
 128 480 l 1
 128 1024 l 1
EndSplineSet
Validated: 1
EndChar

StartChar: Udieresis
Encoding: 220 220 123
Width: 1280
VWidth: 0
Flags: HW
HStem: 0 44<440 741> 680 17G<87 131 741 784> 784 131<318 362 519 562>
VStem: 87 44<353 697> 318 44<784 915> 519 44<784 915> 741 44<44 697>
LayerCount: 2
Fore
SplineSet
848 1536 m 1
 912 1539 l 1
 912 1216 l 1
 848 1216 l 1
 848 1536 l 1
366 1536 m 1
 432 1536 l 1
 432 1216 l 1
 366 1216 l 1
 366 1536 l 1
128 1024 m 1
 192 1024 l 1
 192 499 l 1
 627 64 l 1
 1088 64 l 1
 1088 1024 l 25
 1152 1024 l 25
 1152 0 l 1
 608 0 l 1
 128 480 l 1
 128 1024 l 1
EndSplineSet
Validated: 1
EndChar

StartChar: Yacute
Encoding: 221 221 124
Width: 1280
VWidth: 0
Flags: HW
HStem: 0 18G<414 458> 680 17G<87 161 711 784>
VStem: 414 44<0 349>
LayerCount: 2
Fore
SplineSet
747 1536 m 5
 792 1491 l 5
 533 1216 l 5
 488 1261 l 5
 747 1536 l 5
128 979 m 1xa0
 173 1024 l 1
 640 557 l 1
 1107 1024 l 1
 1152 979 l 1
 672 499 l 1
 672 0 l 1
 608 0 l 1
 608 499 l 1
 128 979 l 1xa0
EndSplineSet
Validated: 1
EndChar

StartChar: agrave
Encoding: 224 224 125
Width: 1280
VWidth: 0
Flags: HW
HStem: 0 44<131 741> 163 44<131 741> 327 44<87 741>
VStem: 87 44<44 163> 741 44<44 163 207 327>
LayerCount: 2
Fore
SplineSet
535 1024 m 5
 792 765 l 5
 747 720 l 5
 488 979 l 5
 535 1024 l 5
1088 240 m 1
 192 240 l 1
 192 64 l 1
 1088 64 l 1
 1088 240 l 1
128 544 m 25
 1152 544 l 25
 1152 0 l 25
 128 0 l 25
 128 304 l 25
 1088 304 l 25
 1088 480 l 25
 128 480 l 25
 128 544 l 25
EndSplineSet
Validated: 1
EndChar

StartChar: aacute
Encoding: 225 225 126
Width: 1280
VWidth: 0
Flags: HW
HStem: 0 44<131 741> 163 44<131 741> 327 44<87 741>
VStem: 87 44<44 163> 741 44<44 163 207 327>
LayerCount: 2
Fore
SplineSet
747 1024 m 5
 792 979 l 5
 535 720 l 5
 490 765 l 5
 747 1024 l 5
1088 240 m 1
 192 240 l 1
 192 64 l 1
 1088 64 l 1
 1088 240 l 1
128 544 m 25
 1152 544 l 25
 1152 0 l 25
 128 0 l 25
 128 304 l 25
 1088 304 l 25
 1088 480 l 25
 128 480 l 25
 128 544 l 25
EndSplineSet
Validated: 1
EndChar

StartChar: acircumflex
Encoding: 226 226 127
Width: 1280
VWidth: 0
Flags: HW
HStem: 0 44<131 741> 163 44<131 741> 327 44<87 741>
VStem: 87 44<44 163> 741 44<44 163 207 327>
LayerCount: 2
Fore
SplineSet
640 1024 m 5
 912 750 l 5
 867 705 l 5
 640 934 l 5
 411 705 l 5
 366 750 l 5
 640 1024 l 5
1088 240 m 1
 192 240 l 1
 192 64 l 1
 1088 64 l 1
 1088 240 l 1
128 544 m 25
 1152 544 l 25
 1152 0 l 25
 128 0 l 25
 128 304 l 25
 1088 304 l 25
 1088 480 l 25
 128 480 l 25
 128 544 l 25
EndSplineSet
Validated: 1
EndChar

StartChar: atilde
Encoding: 227 227 128
Width: 1280
VWidth: 0
Flags: HW
HStem: 0 44<131 741> 163 44<131 741> 327 44<87 741>
VStem: 87 44<44 163> 741 44<44 163 207 327>
LayerCount: 2
Fore
SplineSet
272 765 m 5
 531 1024 l 5
 747 808 l 5
 963 1024 l 5
 1008 979 l 5
 749 720 l 5
 533 936 l 5
 317 720 l 5
 272 765 l 5
1088 240 m 1
 192 240 l 1
 192 64 l 1
 1088 64 l 1
 1088 240 l 1
128 544 m 25
 1152 544 l 25
 1152 0 l 25
 128 0 l 25
 128 304 l 25
 1088 304 l 25
 1088 480 l 25
 128 480 l 25
 128 544 l 25
EndSplineSet
Validated: 1
EndChar

StartChar: adieresis
Encoding: 228 228 129
Width: 1280
VWidth: 0
Flags: HW
HStem: 0 44<131 741> 163 44<131 741> 327 44<87 741> 458 131<318 362 519 562>
VStem: 87 44<44 163> 318 44<458 588> 519 44<458 588> 741 44<44 163 207 327>
LayerCount: 2
Fore
SplineSet
912 1024 m 5
 912 720 l 5
 848 720 l 5
 848 1024 l 5
 912 1024 l 5
432 1024 m 5
 432 720 l 5
 366 720 l 5
 366 1024 l 5
 432 1024 l 5
1088 240 m 1
 192 240 l 1
 192 64 l 1
 1088 64 l 1
 1088 240 l 1
128 544 m 25
 1152 544 l 25
 1152 0 l 25
 128 0 l 25
 128 304 l 25
 1088 304 l 25
 1088 480 l 25
 128 480 l 25
 128 544 l 25
EndSplineSet
Validated: 1
EndChar

StartChar: aring
Encoding: 229 229 130
Width: 1280
VWidth: 0
Flags: HW
HStem: 0 44<131 741> 163 44<131 741> 327 44<87 741> 458 44<362 519> 545 44<362 519>
VStem: 87 44<44 163> 318 44<501 545> 519 44<501 545> 741 44<44 163 207 327>
LayerCount: 2
Fore
SplineSet
848 960 m 25
 432 960 l 1
 432 784 l 29
 848 784 l 1
 848 960 l 25
366 1024 m 25
 912 1024 l 25
 912 720 l 25
 366 720 l 25
 366 1024 l 25
1088 240 m 1
 192 240 l 1
 192 64 l 1
 1088 64 l 1
 1088 240 l 1
128 544 m 25
 1152 544 l 25
 1152 0 l 25
 128 0 l 25
 128 304 l 25
 1088 304 l 25
 1088 480 l 25
 128 480 l 25
 128 544 l 25
EndSplineSet
Validated: 1
EndChar

StartChar: ae
Encoding: 230 230 131
Width: 1280
VWidth: 0
Flags: HW
HStem: 0 44<131 414 458 784> 163 44<131 414 458 741> 327 44<87 414 458 741>
VStem: 87 44<44 163> 414 44<44 163 207 327> 741 44<207 327>
CounterMasks: 1 1c
LayerCount: 2
Fore
SplineSet
1088 480 m 1
 672 480 l 1
 672 304 l 1
 1088 304 l 1
 1088 480 l 1
608 240 m 25
 192 240 l 25
 192 64 l 29
 608 64 l 29
 608 240 l 25
128 544 m 25
 1152 544 l 1
 1152 240 l 1
 672 240 l 1
 672 64 l 5
 1152 64 l 5
 1152 0 l 1
 128 0 l 1
 128 304 l 25
 608 304 l 25
 608 480 l 25
 128 480 l 25
 128 544 l 25
EndSplineSet
Validated: 1
EndChar

StartChar: ccedilla
Encoding: 231 231 132
Width: 1280
VWidth: 0
Flags: HW
HStem: 0 44<131 458 515 784> 327 44<131 784>
VStem: 87 44<44 327>
LayerCount: 2
Fore
SplineSet
1152 544 m 1
 1152 480 l 1
 192 480 l 1
 192 64 l 1
 1152 64 l 1
 1152 0 l 1
 669 0 l 1
 413 -256 l 1
 366 -211 l 1
 577 0 l 1
 128 0 l 1
 128 544 l 1
 1152 544 l 1
EndSplineSet
Validated: 1
EndChar

StartChar: egrave
Encoding: 232 232 133
Width: 1280
VWidth: 0
Flags: HW
HStem: 0 44<131 784> 163 44<131 741> 327 44<131 741>
VStem: 87 44<44 163 207 327> 741 44<207 327>
LayerCount: 2
Fore
SplineSet
535 1024 m 1
 792 765 l 1
 747 720 l 1
 488 979 l 1
 535 1024 l 1
1088 480 m 1
 387 480 l 1
 211 304 l 1
 1088 304 l 1
 1088 480 l 1
366 544 m 1
 1152 544 l 1
 1152 240 l 25
 192 240 l 25
 192 64 l 25
 1152 64 l 25
 1152 0 l 25
 128 0 l 1
 128 304 l 1
 366 544 l 1
EndSplineSet
Validated: 1
EndChar

StartChar: eacute
Encoding: 233 233 134
Width: 1280
VWidth: 0
Flags: HW
HStem: 0 44<131 784> 163 44<131 741> 327 44<131 741>
VStem: 87 44<44 163 207 327> 741 44<207 327>
LayerCount: 2
Fore
SplineSet
747 1024 m 1
 792 979 l 1
 535 720 l 1
 490 765 l 1
 747 1024 l 1
1088 480 m 1
 387 480 l 5
 211 304 l 1
 1088 304 l 1
 1088 480 l 1
366 544 m 1
 1152 544 l 1
 1152 240 l 25
 192 240 l 25
 192 64 l 25
 1152 64 l 25
 1152 0 l 25
 128 0 l 1
 128 304 l 1
 366 544 l 1
EndSplineSet
Validated: 1
EndChar

StartChar: ecircumflex
Encoding: 234 234 135
Width: 1280
VWidth: 0
Flags: HW
HStem: 0 44<131 784> 163 44<131 741> 327 44<131 741>
VStem: 87 44<44 163 207 327> 741 44<207 327>
LayerCount: 2
Fore
SplineSet
640 1024 m 5
 912 750 l 5
 867 705 l 5
 640 934 l 5
 411 705 l 5
 366 750 l 5
 640 1024 l 5
1088 480 m 1
 387 480 l 1
 211 304 l 1
 1088 304 l 1
 1088 480 l 1
366 544 m 1
 1152 544 l 1
 1152 240 l 25
 192 240 l 25
 192 64 l 25
 1152 64 l 25
 1152 0 l 25
 128 0 l 1
 128 304 l 1
 366 544 l 1
EndSplineSet
Validated: 1
EndChar

StartChar: edieresis
Encoding: 235 235 136
Width: 1280
VWidth: 0
Flags: HW
HStem: 0 44<131 784> 163 44<131 741> 327 44<131 741> 458 131<318 362 519 562>
VStem: 87 44<44 163 207 327> 318 44<458 588> 519 44<458 588> 741 44<207 327>
LayerCount: 2
Fore
SplineSet
912 1024 m 5
 912 720 l 5
 848 720 l 5
 848 1024 l 5
 912 1024 l 5
432 1024 m 5
 432 720 l 5
 366 720 l 5
 366 1024 l 5
 432 1024 l 5
1088 480 m 1
 387 480 l 1
 211 304 l 1
 1088 304 l 1
 1088 480 l 1
366 544 m 1
 1152 544 l 1
 1152 240 l 25
 192 240 l 25
 192 64 l 25
 1152 64 l 25
 1152 0 l 25
 128 0 l 1
 128 304 l 1
 366 544 l 1
EndSplineSet
Validated: 1
EndChar

StartChar: igrave
Encoding: 236 236 137
Width: 320
VWidth: 0
Flags: HW
HStem: 0 18G<414 458>
VStem: 414 44<0 436>
LayerCount: 2
Fore
SplineSet
55 1024 m 1
 312 765 l 1
 267 720 l 1
 8 979 l 1
 55 1024 l 1
128 608 m 29
 192 608 l 29
 192 0 l 29
 128 0 l 29
 128 608 l 29
EndSplineSet
Validated: 1
EndChar

StartChar: iacute
Encoding: 237 237 138
Width: 320
VWidth: 0
Flags: HW
HStem: 0 18G<414 458>
VStem: 414 44<0 436>
LayerCount: 2
Fore
SplineSet
265 1024 m 1
 310 979 l 1
 53 720 l 1
 8 765 l 1
 265 1024 l 1
128 608 m 29
 192 608 l 29
 192 0 l 29
 128 0 l 29
 128 608 l 29
EndSplineSet
Validated: 1
EndChar

StartChar: icircumflex
Encoding: 238 238 139
Width: 562
VWidth: 0
Flags: HW
HStem: 0 18G<414 458>
VStem: 414 44<0 436>
LayerCount: 2
Fore
SplineSet
282 1024 m 1
 554 750 l 1
 509 705 l 1
 282 934 l 1
 53 705 l 1
 8 750 l 1
 282 1024 l 1
250 608 m 29
 314 608 l 29
 314 0 l 29
 250 0 l 29
 250 608 l 29
EndSplineSet
Validated: 1
EndChar

StartChar: idieresis
Encoding: 239 239 140
Width: 562
VWidth: 0
Flags: HW
HStem: 0 18G<414 458> 566 131<318 362 519 562>
VStem: 318 44<566 697> 414 44<0 436> 519 44<566 697>
LayerCount: 2
Fore
SplineSet
432 1024 m 5
 432 720 l 5
 367 720 l 5
 367 1024 l 5
 432 1024 l 5
192 1024 m 5
 192 720 l 5
 127 720 l 5
 127 1024 l 5
 192 1024 l 5
250 608 m 29
 314 608 l 29
 314 0 l 29
 250 0 l 29
 250 608 l 29
EndSplineSet
Validated: 1
EndChar

StartChar: eth
Encoding: 240 240 141
Width: 1280
VWidth: 0
Flags: HW
HStem: 0 44<131 741> 327 44<131 741> 512 44<414 741 784 871> 680 17G<741 784>
VStem: 87 44<44 327> 741 44<44 327 370 512 555 697>
LayerCount: 2
Fore
SplineSet
1088 480 m 25
 192 480 l 25
 192 64 l 25
 1088 64 l 25
 1088 480 l 25
128 544 m 25
 1088 544 l 17
 1088 720 l 1
 848 720 l 5
 848 784 l 5
 1088 784 l 1
 1088 1024 l 9
 1152 1024 l 1
 1152 784 l 1
 1216 784 l 1
 1216 720 l 1
 1152 720 l 1
 1152 0 l 9
 128 0 l 25
 128 544 l 25
EndSplineSet
Validated: 1
EndChar

StartChar: ntilde
Encoding: 241 241 142
Width: 1280
VWidth: 0
Flags: HW
HStem: 0 18G<87 131 741 784> 327 44<131 741>
VStem: 87 44<0 327> 741 44<0 327>
LayerCount: 2
Fore
SplineSet
272 765 m 5
 531 1024 l 5
 747 808 l 5
 963 1024 l 5
 1008 979 l 5
 749 720 l 5
 533 936 l 5
 317 720 l 5
 272 765 l 5
128 0 m 25
 128 544 l 25
 1152 544 l 25
 1152 0 l 25
 1088 0 l 25
 1088 480 l 25
 192 480 l 25
 192 0 l 25
 128 0 l 25
EndSplineSet
Validated: 1
EndChar

StartChar: ograve
Encoding: 242 242 143
Width: 1280
VWidth: 0
Flags: HW
HStem: 0 44<131 741> 327 44<131 741>
VStem: 87 44<44 327> 741 44<44 327>
LayerCount: 2
Fore
SplineSet
535 1024 m 5
 792 765 l 5
 747 720 l 5
 488 979 l 5
 535 1024 l 5
1088 480 m 25
 192 480 l 25
 192 64 l 25
 1088 64 l 25
 1088 480 l 25
128 0 m 25
 128 544 l 25
 1152 544 l 25
 1152 0 l 25
 128 0 l 25
EndSplineSet
Validated: 1
EndChar

StartChar: oacute
Encoding: 243 243 144
Width: 1280
VWidth: 0
Flags: HW
HStem: 0 44<131 741> 327 44<131 741>
VStem: 87 44<44 327> 741 44<44 327>
LayerCount: 2
Fore
SplineSet
747 1024 m 5
 792 979 l 5
 535 720 l 5
 490 765 l 5
 747 1024 l 5
1088 480 m 25
 192 480 l 25
 192 64 l 25
 1088 64 l 25
 1088 480 l 25
128 0 m 25
 128 544 l 25
 1152 544 l 25
 1152 0 l 25
 128 0 l 25
EndSplineSet
Validated: 1
EndChar

StartChar: ocircumflex
Encoding: 244 244 145
Width: 1280
VWidth: 0
Flags: HW
HStem: 0 44<131 741> 327 44<131 741>
VStem: 87 44<44 327> 741 44<44 327>
LayerCount: 2
Fore
SplineSet
640 1024 m 5
 912 750 l 5
 867 705 l 5
 640 934 l 5
 411 705 l 5
 366 750 l 5
 640 1024 l 5
1088 480 m 25
 192 480 l 25
 192 64 l 25
 1088 64 l 25
 1088 480 l 25
128 0 m 25
 128 544 l 25
 1152 544 l 25
 1152 0 l 25
 128 0 l 25
EndSplineSet
Validated: 1
EndChar

StartChar: otilde
Encoding: 245 245 146
Width: 1280
VWidth: 0
Flags: HW
HStem: 0 44<131 741> 327 44<131 741>
VStem: 87 44<44 327> 741 44<44 327>
LayerCount: 2
Fore
SplineSet
272 765 m 5
 531 1024 l 5
 747 808 l 5
 963 1024 l 5
 1008 979 l 5
 749 720 l 5
 533 936 l 5
 317 720 l 5
 272 765 l 5
1088 480 m 25
 192 480 l 25
 192 64 l 25
 1088 64 l 25
 1088 480 l 25
128 0 m 25
 128 544 l 25
 1152 544 l 25
 1152 0 l 25
 128 0 l 25
EndSplineSet
Validated: 1
EndChar

StartChar: odieresis
Encoding: 246 246 147
Width: 1280
VWidth: 0
Flags: HW
HStem: 0 44<131 741> 327 44<131 741> 458 131<318 362 519 562>
VStem: 87 44<44 327> 318 44<458 588> 519 44<458 588> 741 44<44 327>
LayerCount: 2
Fore
SplineSet
912 1024 m 5
 912 720 l 5
 848 720 l 5
 848 1024 l 5
 912 1024 l 5
432 1024 m 5
 432 720 l 5
 366 720 l 5
 366 1024 l 5
 432 1024 l 5
1088 480 m 25
 192 480 l 25
 192 64 l 25
 1088 64 l 25
 1088 480 l 25
128 0 m 25
 128 544 l 25
 1152 544 l 25
 1152 0 l 25
 128 0 l 25
EndSplineSet
Validated: 1
EndChar

StartChar: divide
Encoding: 247 247 148
Width: 1280
VWidth: 0
Flags: HW
HStem: 327 44<87 784>
VStem: 414 44<109 240 458 588>
LayerCount: 2
Fore
SplineSet
608 304 m 5
 672 304 l 5
 672 176 l 5
 608 176 l 5
 608 304 l 5
608 848 m 1
 672 848 l 1
 672 720 l 1
 608 720 l 1
 608 848 l 1
1152 544 m 25
 1152 480 l 25
 128 480 l 25
 128 544 l 25
 1152 544 l 25
EndSplineSet
Validated: 1
EndChar

StartChar: ugrave
Encoding: 249 249 149
Width: 1280
VWidth: 0
Flags: HW
HStem: 0 44<131 741> 353 17G<87 131 741 784>
VStem: 87 44<44 370> 741 44<44 370>
LayerCount: 2
Fore
SplineSet
535 1024 m 5
 792 765 l 5
 747 720 l 5
 488 979 l 5
 535 1024 l 5
128 544 m 25
 192 544 l 25
 192 64 l 25
 1088 64 l 25
 1088 544 l 25
 1152 544 l 25
 1152 0 l 25
 128 0 l 25
 128 544 l 25
EndSplineSet
Validated: 1
EndChar

StartChar: uacute
Encoding: 250 250 150
Width: 1280
VWidth: 0
Flags: HW
HStem: 0 44<131 741> 353 17G<87 131 741 784>
VStem: 87 44<44 370> 741 44<44 370>
LayerCount: 2
Fore
SplineSet
747 1024 m 5
 792 979 l 5
 535 720 l 5
 490 765 l 5
 747 1024 l 5
128 544 m 25
 192 544 l 25
 192 64 l 25
 1088 64 l 25
 1088 544 l 25
 1152 544 l 25
 1152 0 l 25
 128 0 l 25
 128 544 l 25
EndSplineSet
Validated: 1
EndChar

StartChar: ucircumflex
Encoding: 251 251 151
Width: 1280
VWidth: 0
Flags: HW
HStem: 0 44<131 741> 353 17G<87 131 741 784>
VStem: 87 44<44 370> 741 44<44 370>
LayerCount: 2
Fore
SplineSet
640 1024 m 5
 912 750 l 5
 867 705 l 5
 640 934 l 5
 411 705 l 5
 366 750 l 5
 640 1024 l 5
128 544 m 25
 192 544 l 25
 192 64 l 25
 1088 64 l 25
 1088 544 l 25
 1152 544 l 25
 1152 0 l 25
 128 0 l 25
 128 544 l 25
EndSplineSet
Validated: 1
EndChar

StartChar: udieresis
Encoding: 252 252 152
Width: 1280
VWidth: 0
Flags: HW
HStem: 0 44<131 741> 353 17G<87 131 741 784> 458 131<318 362 519 562>
VStem: 87 44<44 370> 318 44<458 588> 519 44<458 588> 741 44<44 370>
LayerCount: 2
Fore
SplineSet
912 1024 m 5
 912 720 l 5
 848 720 l 5
 848 1024 l 5
 912 1024 l 5
432 1024 m 5
 432 720 l 5
 366 720 l 5
 366 1024 l 5
 432 1024 l 5
128 544 m 25
 192 544 l 25
 192 64 l 25
 1088 64 l 25
 1088 544 l 25
 1152 544 l 25
 1152 0 l 25
 128 0 l 25
 128 544 l 25
EndSplineSet
Validated: 1
EndChar

StartChar: yacute
Encoding: 253 253 153
Width: 1280
VWidth: 0
Flags: HW
HStem: 353 17G<87 160 711 784>
LayerCount: 2
Fore
SplineSet
747 1024 m 5
 792 979 l 5
 535 720 l 5
 490 765 l 5
 747 1024 l 5
128 499 m 1
 173 544 l 1
 640 77 l 1
 1107 544 l 1
 1152 499 l 1
 173 -512 l 1
 128 -467 l 1
 595 32 l 1
 128 499 l 1
EndSplineSet
Validated: 1
EndChar

StartChar: ydieresis
Encoding: 255 255 154
Width: 1280
VWidth: 0
Flags: HW
HStem: 353 17G<87 160 711 784> 458 131<318 362 519 562>
VStem: 318 44<458 588> 519 44<458 588>
LayerCount: 2
Fore
SplineSet
912 1024 m 5
 912 720 l 5
 848 720 l 5
 848 1024 l 5
 912 1024 l 5
432 1024 m 5
 432 720 l 5
 366 720 l 5
 366 1024 l 5
 432 1024 l 5
128 499 m 1
 173 544 l 1
 640 77 l 1
 1107 544 l 1
 1152 499 l 1
 173 -512 l 1
 128 -467 l 1
 595 32 l 1
 128 499 l 1
EndSplineSet
Validated: 1
EndChar

StartChar: Oslash
Encoding: 216 216 155
Width: 1283
VWidth: 0
Flags: HW
HStem: 0 44<166 741> 654 44<131 706>
VStem: 87 44<78 654> 741 44<44 619>
LayerCount: 2
Fore
SplineSet
1088 915 m 1
 237 64 l 1
 1088 64 l 1
 1088 915 l 1
1043 960 m 1
 192 960 l 1
 192 109 l 1
 1043 960 l 1
128 1024 m 1
 1107 1024 l 1
 1171 1088 l 1
 1216 1043 l 1
 1152 979 l 1
 1152 0 l 1
 173 0 l 1
 109 -64 l 5
 64 -19 l 1
 128 45 l 1
 128 1024 l 1
EndSplineSet
Validated: 1
EndChar

StartChar: oslash
Encoding: 248 248 156
Width: 1280
VWidth: 0
Flags: HW
HStem: 0 44<166 741> 327 44<131 706>
VStem: 87 44<78 327> 741 44<44 292>
LayerCount: 2
Fore
SplineSet
1088 480 m 1
 893 480 l 1
 477 64 l 1
 1085 64 l 1
 1088 480 l 1
801 480 m 1
 192 480 l 1
 192 64 l 1
 385 64 l 1
 801 480 l 1
128 0 m 1
 128 544 l 1
 867 544 l 1
 976 653 l 5
 1021 608 l 1
 957 544 l 1
 1152 544 l 1
 1152 0 l 1
 413 0 l 1
 305 -108 l 1
 257 -64 l 1
 321 0 l 1
 128 0 l 1
EndSplineSet
Validated: 1
EndChar

StartChar: questiondown
Encoding: 191 191 157
Width: 1280
VWidth: 0
Flags: HW
HStem: -78 44<200 514> 248 44<200 484>
VStem: 157 44<-35 248> 484 44<292 414 488 619>
LayerCount: 2
Fore
SplineSet
1152 224 m 1
 672 -256 l 1
 128 -256 l 1
 128 304 l 1
 608 304 l 1
 608 544 l 1
 672 544 l 1
 672 240 l 1
 192 240 l 1
 192 -192 l 1
 646 -192 l 1
 1107 269 l 1
 1152 224 l 1
672 784 m 1
 672 656 l 1
 608 656 l 1
 608 784 l 1
 672 784 l 1
EndSplineSet
Validated: 1
EndChar

StartChar: mu
Encoding: 181 181 158
Width: 1280
VWidth: 0
Flags: HW
HStem: 0 44<131 741> 353 17G<87 131 741 784>
VStem: 87 44<-87 0 44 370> 741 44<44 370>
LayerCount: 2
Fore
SplineSet
128 544 m 25
 192 544 l 25
 192 64 l 25
 1088 64 l 25
 1088 544 l 25
 1152 544 l 25
 1152 0 l 17
 192 0 l 1
 192 -256 l 5
 128 -256 l 5
 128 544 l 25
EndSplineSet
Validated: 1
EndChar

StartChar: paragraph
Encoding: 182 182 159
Width: 1280
VWidth: 0
Flags: HW
HStem: 0 18G<414 458 741 784> 327 44<458 741> 654 44<458 741>
VStem: 87 370<370 654> 414 44<0 327> 741 44<0 327 370 654>
LayerCount: 2
Fore
SplineSet
1088 960 m 1xf4
 672 960 l 1
 672 544 l 1
 1088 544 l 1
 1088 960 l 1xf4
128 1024 m 1
 1152 1024 l 1
 1152 0 l 1
 1088 0 l 1
 1088 480 l 1
 672 480 l 1
 672 0 l 1
 608 0 l 1
 608 480 l 1xec
 128 480 l 1
 128 1024 l 1
EndSplineSet
Validated: 1
EndChar

StartChar: cedilla
Encoding: 184 184 160
Width: 320
VWidth: 0
Flags: HW
HStem: -118 174
VStem: 349 174
LayerCount: 2
Fore
SplineSet
128 26 m 5
 128 128 l 5
 192 128 l 5
 192 0 l 5
 65 -127 l 5
 20 -82 l 5
 128 26 l 5
EndSplineSet
Validated: 1
EndChar

StartChar: periodcentered
Encoding: 183 183 161
Width: 384
VWidth: 0
Flags: HW
HStem: 283 131<414 458>
VStem: 414 44<283 414>
LayerCount: 2
Fore
SplineSet
128 480 m 1
 128 544 l 1
 256 544 l 1
 256 480 l 1
 128 480 l 1
EndSplineSet
Validated: 1
EndChar

StartChar: ordmasculine
Encoding: 186 186 162
Width: 608
VWidth: 0
Flags: HW
HStem: 784 44<362 519> 959 44<362 519>
VStem: 318 44<828 959> 519 44<828 959>
LayerCount: 2
Fore
SplineSet
366 1472 m 5
 192 1472 l 5
 192 1280 l 5
 366 1280 l 5
 366 1472 l 5
128 1216 m 5
 128 1536 l 5
 432 1536 l 5
 432 1216 l 29
 128 1216 l 5
EndSplineSet
Validated: 1
EndChar

StartChar: plusminus
Encoding: 177 177 163
Width: 1280
VWidth: 0
Flags: HW
HStem: 0 18G<414 458> 327 44<87 414 458 784> 680 17G<414 458>
VStem: 414 44<0 327 370 697>
LayerCount: 2
Fore
SplineSet
128 64 m 25
 1152 64 l 25
 1152 0 l 25
 128 0 l 25
 128 64 l 25
608 1027 m 25
 672 1027 l 25
 672 544 l 25
 1152 544 l 25
 1152 480 l 25
 672 480 l 25
 672 128 l 29
 608 128 l 29
 608 480 l 25
 128 480 l 25
 128 544 l 25
 608 544 l 25
 608 1027 l 25
EndSplineSet
Validated: 1
EndChar

StartChar: uni00AD
Encoding: 173 173 164
Width: 1280
VWidth: 0
Flags: HW
HStem: 327 44<87 784>
LayerCount: 2
Fore
SplineSet
1152 544 m 25
 1152 480 l 25
 128 480 l 25
 128 544 l 25
 1152 544 l 25
EndSplineSet
Validated: 1
EndChar

StartChar: logicalnot
Encoding: 172 172 165
Width: 1280
VWidth: 0
Flags: HW
HStem: 327 44<87 741>
VStem: 741 44<196 327>
LayerCount: 2
Fore
SplineSet
1152 544 m 1
 1152 240 l 1
 1088 240 l 5
 1088 480 l 1
 128 480 l 1
 128 544 l 25
 1152 544 l 1
EndSplineSet
Validated: 1
EndChar

StartChar: macron
Encoding: 175 175 166
Width: 1280
VWidth: 0
Flags: HW
HStem: 654 44<87 784>
LayerCount: 2
Fore
SplineSet
1152 1024 m 25
 1152 960 l 25
 128 960 l 25
 128 1024 l 25
 1152 1024 l 25
EndSplineSet
Validated: 1
EndChar

StartChar: cent
Encoding: 162 162 167
Width: 1280
VWidth: 0
Flags: HW
HStem: 0 44<131 414 458 784> 327 44<131 414 458 784>
VStem: 87 44<44 327> 414 44<-87 0 370 458>
LayerCount: 2
Fore
SplineSet
128 544 m 1
 608 544 l 1
 608 784 l 1
 672 784 l 1
 672 544 l 1
 1152 544 l 1
 1152 480 l 25
 192 480 l 25
 192 64 l 25
 1152 64 l 25
 1152 0 l 1
 672 0 l 1
 672 -256 l 1
 608 -256 l 1
 608 0 l 1
 128 0 l 1
 128 544 l 1
EndSplineSet
Validated: 1
EndChar

StartChar: currency
Encoding: 164 164 168
Width: 1280
VWidth: 0
Flags: HW
HStem: 131 44<261 610> 523 44<261 610>
VStem: 218 44<174 523> 610 44<174 523>
LayerCount: 2
Fore
SplineSet
848 720 m 25
 432 720 l 25
 432 304 l 25
 848 304 l 25
 848 720 l 25
128 979 m 1
 173 1024 l 1
 413 784 l 1
 867 784 l 1
 1107 1024 l 1
 1152 979 l 1
 912 739 l 1
 912 285 l 1
 1152 45 l 1
 1107 0 l 1
 867 240 l 1
 413 240 l 5
 173 0 l 5
 128 45 l 1
 366 285 l 1
 366 739 l 1
 128 979 l 1
EndSplineSet
Validated: 1
EndChar

StartChar: brokenbar
Encoding: 166 166 169
Width: 1280
VWidth: 0
Flags: HW
HStem: 0 18G<414 458> 680 17G<414 458>
VStem: 414 44<0 327 414 697>
LayerCount: 2
Fore
SplineSet
608 1024 m 1
 672 1024 l 1
 672 544 l 1
 608 544 l 1
 608 1024 l 1
608 480 m 1
 672 480 l 1
 672 0 l 1
 608 0 l 1
 608 480 l 1
EndSplineSet
Validated: 1
EndChar

StartChar: dieresis
Encoding: 168 168 170
Width: 1280
VWidth: 0
Flags: HW
HStem: 784 131<318 362 519 562>
VStem: 318 44<784 915> 519 44<784 915>
LayerCount: 2
Fore
SplineSet
848 1536 m 1
 912 1539 l 1
 912 1216 l 1
 848 1216 l 1
 848 1536 l 1
366 1536 m 1
 432 1536 l 1
 432 1216 l 1
 366 1216 l 1
 366 1536 l 1
EndSplineSet
Validated: 1
EndChar

StartChar: sterling
Encoding: 163 163 171
Width: 1280
VWidth: 0
Flags: HW
HStem: 0 44<183 741> 327 44<0 87 131 397> 654 44<131 414>
VStem: 87 44<370 654> 414 44<566 654> 741 44<44 131>
CounterMasks: 1 fc
LayerCount: 2
Fore
SplineSet
1152 720 m 1
 1088 720 l 1
 1088 960 l 1
 627 960 l 1
 432 765 l 1
 432 544 l 1
 912 544 l 1
 912 480 l 1
 432 480 l 1
 432 64 l 1
 1088 64 l 1
 1088 128 l 1
 1152 128 l 1
 1152 0 l 1
 128 0 l 1
 128 64 l 1
 366 64 l 1
 366 480 l 1
 128 480 l 1
 128 544 l 1
 366 544 l 1
 366 784 l 1
 608 1025 l 1
 1152 1024 l 1
 1152 720 l 1
EndSplineSet
Validated: 1
EndChar

StartChar: yen
Encoding: 165 165 172
Width: 1280
VWidth: 0
Flags: HW
HStem: 0 44<87 414 458 784> 163 44<87 414 458 784> 680 17G<87 161 711 784>
VStem: 414 44<44 163 207 349>
LayerCount: 2
Fore
SplineSet
128 979 m 1xa0
 173 1024 l 1
 640 557 l 1
 1107 1024 l 1
 1152 979 l 1
 672 499 l 1
 672 304 l 1
 912 304 l 1
 912 240 l 1
 672 240 l 1
 672 64 l 1
 912 64 l 1
 912 0 l 1
 366 0 l 1
 366 64 l 1
 608 64 l 1
 608 240 l 1
 366 240 l 1
 366 304 l 1
 608 305 l 1
 608 499 l 1
 128 979 l 1xa0
EndSplineSet
Validated: 1
EndChar

StartChar: copyright
Encoding: 169 169 173
Width: 1280
VWidth: 0
Flags: HW
HStem: 0 44<131 741> 163 44<261 654> 490 44<261 654> 654 44<131 741>
VStem: 87 44<44 654> 218 44<207 490> 741 44<44 654>
LayerCount: 2
Fore
SplineSet
912 784 m 1
 912 720 l 25
 432 720 l 1
 432 304 l 1
 912 304 l 1
 912 240 l 1
 366 240 l 1
 366 784 l 25
 912 784 l 1
1088 960 m 25
 192 960 l 25
 192 64 l 25
 1088 64 l 25
 1088 960 l 25
128 1024 m 25
 1152 1024 l 25
 1152 0 l 25
 128 0 l 25
 128 1024 l 25
EndSplineSet
Validated: 1
EndChar

StartChar: registered
Encoding: 174 174 174
Width: 1280
VWidth: 0
Flags: HW
HStem: 0 44<131 608 678 741> 327 44<275 610> 520 44<261 610> 654 44<131 741>
VStem: 87 44<44 654> 218 44<163 283 370 520> 610 44<370 520> 741 44<44 654>
LayerCount: 2
Fore
SplineSet
848 720 m 1
 432 720 l 1
 432 544 l 1
 848 544 l 1
 848 720 l 1
1088 960 m 25
 192 960 l 25
 192 64 l 1
 800 64 l 1
 432 435 l 1
 432 240 l 1
 366 240 l 1
 366 784 l 1
 912 784 l 1
 912 480 l 1
 477 480 l 1
 893 64 l 1
 1088 64 l 1
 1088 960 l 25
128 1024 m 25
 1152 1024 l 25
 1152 0 l 25
 128 0 l 25
 128 1024 l 25
EndSplineSet
Validated: 1
EndChar

StartChar: guillemotright
Encoding: 187 187 175
Width: 1280
VWidth: 0
Flags: HW
LayerCount: 2
Fore
SplineSet
128 979 m 5
 173 1024 l 5
 672 512 l 5
 173 0 l 5
 128 45 l 5
 595 512 l 5
 128 979 l 5
608 979 m 1
 653 1024 l 1
 1152 512 l 1
 653 0 l 1
 608 45 l 1
 1075 512 l 1
 608 979 l 1
EndSplineSet
Validated: 1
EndChar

StartChar: guillemotleft
Encoding: 171 171 176
Width: 1280
VWidth: 0
Flags: HW
LayerCount: 2
Fore
SplineSet
1107 1024 m 5
 1152 979 l 5
 685 512 l 5
 1152 45 l 5
 1107 0 l 5
 608 512 l 5
 1107 1024 l 5
627 1024 m 1
 672 979 l 1
 205 512 l 1
 672 45 l 1
 627 0 l 1
 128 512 l 1
 627 1024 l 1
EndSplineSet
Validated: 1
EndChar

StartChar: degree
Encoding: 176 176 177
Width: 608
VWidth: 0
Flags: HW
HStem: 784 44<362 519> 871 44<362 519>
VStem: 318 44<828 871> 519 44<828 871>
LayerCount: 2
Fore
SplineSet
366 1472 m 5
 192 1472 l 5
 192 1280 l 5
 366 1280 l 5
 366 1472 l 5
128 1216 m 5
 128 1536 l 5
 432 1536 l 5
 432 1216 l 29
 128 1216 l 5
EndSplineSet
Validated: 1
EndChar

StartChar: section
Encoding: 167 167 178
Width: 1280
VWidth: 0
Flags: HW
HStem: 0 44<87 296 375 431> 283 44<131 571> 370 44<218 741> 654 44<131 174 218 784>
VStem: 87 44<327 654> 174 44<414 654> 741 44<309 370>
LayerCount: 2
Fore
SplineSet
256 960 m 1
 192 960 l 1
 192 480 l 1
 986 480 l 5
 986 416 l 1
 634 64 l 1
 717 64 l 1
 1088 435 l 1
 1088 544 l 1
 256 544 l 1
 256 960 l 1
128 1024 m 25
 1152 1024 l 25
 1152 960 l 25
 322 960 l 25
 322 604 l 25
 1152 604 l 25
 1152 416 l 1
 736 0 l 25
 128 0 l 1
 128 64 l 1
 561 64 l 1
 913 416 l 1
 128 416 l 1
 128 1024 l 25
EndSplineSet
Validated: 1
EndChar

StartChar: asterisk
Encoding: 42 42 179
Width: 1280
VWidth: 0
Flags: HW
HStem: 0 18G<100 135 736 771> 327 44<250 383 488 621> 680 17G<100 135 736 771>
VStem: 414 44<163 296 401 534>
LayerCount: 2
Fore
SplineSet
608 1024 m 1
 672 1024 l 1
 672 829 l 1
 823 980 l 1
 868 934 l 1
 718 784 l 1
 912 784 l 1
 912 720 l 1
 717 720 l 1
 868 569 l 1
 823 524 l 1
 672 675 l 1
 672 480 l 1
 608 480 l 1
 608 675 l 1
 458 525 l 1
 411 570 l 1
 564 720 l 1
 366 720 l 1
 366 784 l 1
 564 784 l 1
 411 937 l 1
 458 979 l 1
 608 829 l 1
 608 1024 l 1
EndSplineSet
Validated: 1
EndChar

StartChar: thorn
Encoding: 254 254 180
Width: 800
VWidth: 0
Flags: HW
HStem: 0 18G<87 131> 250 44<131 414> 403 44<131 414> 680 17G<87 131>
VStem: 87 44<0 250 294 403 446 697> 414 44<294 403>
LayerCount: 2
Fore
SplineSet
608 240 m 25x3c
 192 240 l 25
 192 -192 l 25
 608 -192 l 25
 608 240 l 25x3c
128 1024 m 1
 192 1024 l 1
 192 304 l 1
 672 304 l 1
 672 -256 l 25
 192 -256 l 25
 192 -512 l 25
 128 -512 l 25xbc
 128 1024 l 1
EndSplineSet
Validated: 1
EndChar

StartChar: Thorn
Encoding: 222 222 181
Width: 800
VWidth: 0
Flags: HW
HStem: 0 18G<87 131> 163 44<131 741> 490 44<131 741> 680 17G<87 131>
VStem: 87 44<0 163 207 490 533 697> 741 44<207 490>
LayerCount: 2
Fore
SplineSet
608 720 m 29x3c
 192 720 l 29
 192 304 l 29
 608 304 l 29
 608 720 l 29x3c
128 1024 m 5
 192 1024 l 5
 192 784 l 5
 672 784 l 5
 672 240 l 29
 192 240 l 29
 192 0 l 29
 128 0 l 29xbc
 128 1024 l 5
EndSplineSet
Validated: 1
EndChar

StartChar: germandbls
Encoding: 223 223 182
Width: 1280
VWidth: 0
Flags: HW
HStem: 0 44<0 87 261 741> 327 44<0 87 131 728> 654 44<131 444>
VStem: 87 44<44 327 370 654> 218 44<44 131> 741 44<44 327>
CounterMasks: 1 e0
LayerCount: 2
Fore
SplineSet
653 960 m 1
 192 960 l 1
 192 544 l 1
 1069 544 l 1
 653 960 l 1
128 1024 m 1
 672 1024 l 25
 1152 544 l 1
 1152 0 l 1
 366 0 l 1
 366 128 l 5
 432 128 l 5
 432 64 l 1
 1088 64 l 1
 1088 480 l 1
 192 480 l 1
 192 0 l 1
 64 0 l 1
 64 64 l 1
 128 64 l 1
 128 480 l 1
 64 480 l 1
 64 544 l 1
 128 544 l 1
 128 1024 l 1
EndSplineSet
Validated: 1
EndChar

StartChar: uni00B9
Encoding: 185 185 183
Width: 800
VWidth: 0
Flags: HW
HStem: 784 44<-74 22 66 170> 959 44<-74 22>
VStem: 22 44<828 959>
LayerCount: 2
Fore
SplineSet
128 1216 m 5
 128 1280 l 5
 366 1280 l 5
 366 1472 l 5
 128 1472 l 5
 128 1536 l 5
 432 1536 l 5
 432 1280 l 5
 672 1280 l 5
 672 1216 l 5
 128 1216 l 5
EndSplineSet
Validated: 1
EndChar

StartChar: uni00B2
Encoding: 178 178 184
Width: 800
VWidth: 0
Flags: HW
HStem: 784 44<362 562> 871 44<362 488> 959 44<318 431>
VStem: 318 44<828 871>
CounterMasks: 1 e0
LayerCount: 2
Fore
SplineSet
128 1536 m 1
 540 1536 l 1
 672 1404 l 1
 672 1343 l 1
 192 1343 l 1
 192 1280 l 1
 672 1280 l 1
 672 1216 l 1
 128 1216 l 1
 128 1407 l 1
 579 1407 l 1
 514 1472 l 1
 128 1472 l 1
 128 1536 l 1
EndSplineSet
Validated: 1
EndChar

StartChar: uni00B3
Encoding: 179 179 185
Width: 800
VWidth: 0
Flags: HW
HStem: 784 44<318 519> 871 44<414 519> 959 44<318 519> 1177 44<383 414 458 562>
VStem: 414 44<1089 1177 1220 1238> 519 44<828 871 915 959>
LayerCount: 2
Fore
SplineSet
128 1216 m 1
 128 1280 l 1
 608 1280 l 1
 608 1344 l 1
 366 1344 l 1
 366 1408 l 1
 608 1408 l 1
 608 1472 l 1
 128 1472 l 1
 128 1536 l 1
 672 1536 l 1
 672 1216 l 1
 128 1216 l 1
EndSplineSet
Validated: 1
EndChar

StartChar: onequarter
Encoding: 188 188 186
Width: 1280
VWidth: 0
Flags: HW
HStem: 0 18G<87 160> 218 44<580 632 675 780> 392 44<144 240 283 388> 566 44<144 240> 680 17G<712 784>
VStem: 240 44<436 566> 536 44<261 349> 632 44<131 218 261 349>
LayerCount: 2
Fore
SplineSet
848 461 m 5
 691 304 l 5
 848 304 l 5
 848 461 l 5
912 544 m 29
 912 304 l 5
 1152 304 l 5
 1152 240 l 5
 912 240 l 5
 912 0 l 5
 848 0 l 5
 848 240 l 5
 608 240 l 5
 608 304 l 5
 848 544 l 5
 912 544 l 29
128 720 m 5
 128 784 l 5
 366 784 l 5
 366 960 l 5
 128 960 l 5
 128 1024 l 5
 432 1024 l 5
 432 784 l 5
 672 784 l 5
 672 720 l 5
 128 720 l 5
1107 1024 m 5
 1152 979 l 5
 173 0 l 5
 128 45 l 5
 1107 1024 l 5
EndSplineSet
Validated: 1
EndChar

StartChar: onehalf
Encoding: 189 189 187
Width: 1280
VWidth: 0
Flags: HW
HStem: 0 18G<87 160> 131 44<580 780> 218 44<580 706> 305 44<536 649> 392 44<144 240 283 388> 566 44<144 240> 680 17G<712 784>
VStem: 240 44<436 566> 536 44<174 218>
LayerCount: 2
Fore
SplineSet
608 304 m 1
 1029 304 l 1
 1152 181 l 1
 1152 120 l 1
 672 120 l 1
 672 64 l 1
 1152 64 l 1
 1152 0 l 1
 608 0 l 1
 608 184 l 1
 1059 184 l 1
 1003 240 l 1
 608 240 l 1
 608 304 l 1
128 720 m 1
 128 784 l 1
 366 784 l 1
 366 960 l 1
 128 960 l 1
 128 1024 l 1
 432 1024 l 1
 432 784 l 1
 672 784 l 1
 672 720 l 1
 128 720 l 1
1107 1024 m 1
 1152 979 l 1
 173 0 l 1
 128 45 l 1
 1107 1024 l 1
EndSplineSet
Validated: 1
EndChar

StartChar: threequarters
Encoding: 190 190 188
Width: 1280
VWidth: 0
Flags: HW
HStem: 0 18G<87 160> 218 44<580 632 675 780> 392 44<144 344> 479 44<240 344> 566 44<144 344> 680 17G<712 784>
VStem: 344 44<436 479 523 566> 536 44<261 349> 632 44<131 218 261 349>
LayerCount: 2
Fore
SplineSet
848 461 m 1
 691 304 l 1
 848 304 l 1
 848 461 l 1
912 544 m 25
 912 304 l 1
 1152 304 l 1
 1152 240 l 1
 912 240 l 1
 912 0 l 1
 848 0 l 1
 848 240 l 1
 608 240 l 1
 608 304 l 1
 848 544 l 1
 912 544 l 25
128 720 m 5
 128 784 l 5
 608 784 l 5
 608 840 l 5
 366 840 l 5
 366 904 l 5
 608 904 l 5
 608 960 l 5
 128 960 l 5
 128 1024 l 5
 672 1024 l 5
 672 720 l 5
 128 720 l 5
1107 1024 m 1
 1152 979 l 1
 173 0 l 1
 128 45 l 1
 1107 1024 l 1
EndSplineSet
Validated: 1
EndChar
